<?xml version="1.0" encoding="UTF-8"?>
<svg id="Layer_1" data-name="Layer 1" xmlns="http://www.w3.org/2000/svg" viewBox="0 0 844.6 171.82">
  <defs>
    <style>
      .cls-1 {
        fill: #fff;
      }

      .cls-2 {
        fill: red;
      }
    </style>
  </defs>
  <path class="cls-1" d="M195.83,53.75c0-10.39,2.47-18.35,7.44-23.94,4.97-5.54,12.45-8.34,22.35-8.34s17.38,2.79,22.35,8.34c4.97,5.58,7.44,13.55,7.44,23.94v4.02h-19.1v-5.34c0-4.64-.9-7.92-2.67-9.81-1.77-1.85-4.27-2.79-7.44-2.79s-5.67.94-7.43,2.83c-1.77,1.89-2.67,5.17-2.67,9.81,0,4.39.99,8.29,2.96,11.66,1.97,3.37,4.4,6.53,7.35,9.53,2.96,3,6.08,5.99,9.45,8.99,3.37,3,6.53,6.28,9.45,9.81,2.96,3.53,5.38,7.6,7.35,12.11,1.97,4.52,2.96,9.85,2.96,15.97,0,10.39-2.55,18.35-7.64,23.94-5.09,5.58-12.57,8.33-22.51,8.33s-17.42-2.79-22.51-8.33c-5.09-5.58-7.64-13.59-7.64-23.98v-7.88h19.1v9.16c0,4.64.94,7.88,2.83,9.73,1.89,1.85,4.44,2.75,7.64,2.75s5.71-.9,7.64-2.75c1.89-1.85,2.83-5.09,2.83-9.73,0-4.39-.99-8.29-2.96-11.66-1.97-3.37-4.4-6.53-7.35-9.53-2.96-3-6.08-5.99-9.45-8.99-3.37-3-6.53-6.28-9.45-9.81-2.96-3.53-5.38-7.6-7.35-12.11-1.97-4.48-2.96-9.81-2.96-15.93Z"/>
  <path class="cls-1" d="M296.72,23.13c10.11,0,17.61,2.7,22.54,8.07,4.93,5.36,7.38,13.23,7.38,23.59v16.62c0,10.36-2.45,18.22-7.38,23.59-4.93,5.36-12.43,8.07-22.54,8.07h-9.5v48.11h-20.06V23.13h29.56ZM287.26,41.39v43.36h9.5c3.18,0,5.59-.86,7.3-2.58,1.71-1.72,2.57-4.87,2.57-9.5v-19.2c0-4.63-.86-7.82-2.57-9.5-1.71-1.72-4.12-2.58-7.3-2.58h-9.5Z"/>
  <path class="cls-1" d="M456.43,151.13c-.25-.86-.49-1.64-.74-2.37-.25-.74-.45-1.64-.66-2.74-.21-1.11-.33-2.5-.37-4.22-.08-1.72-.08-3.85-.08-6.39v-20.1c0-5.98-1.03-10.19-3.12-12.61-2.09-2.46-5.46-3.64-10.09-3.64h-6.98v52.11h-20.19V23.13h30.49c10.55,0,18.14,2.46,22.86,7.33,4.72,4.87,7.06,12.24,7.06,22.15v10.07c0,13.18-4.39,21.82-13.21,25.95,5.13,2.09,8.66,5.44,10.55,10.15,1.89,4.71,2.83,10.4,2.83,17.11v19.73c0,3.15.12,5.94.37,8.31.25,2.37.86,4.79,1.85,7.2h-20.56ZM434.4,41.39v39.3h7.88c3.78,0,6.77-.98,8.9-2.91,2.13-1.96,3.2-5.49,3.2-10.6v-12.61c0-4.63-.82-7.98-2.46-10.07-1.64-2.09-4.27-3.11-7.8-3.11h-9.73Z"/>
  <path class="cls-1" d="M481.99,23.13h61.92v18.3h-20.96v109.74h-20.03V41.44h-20.96v-18.3h.04Z"/>
  <path class="cls-1" d="M608.34,23.13v17.94l-38.06,91.81h38.06v18.3h-58.65v-17.93l38.06-91.8h-36.23v-18.3h56.82Z"/>
  <path class="cls-1" d="M620.73,23.13h19.83v128.04h-19.83V23.13Z"/>
  <path class="cls-1" d="M673.48,58.43v92.75h-18.05V23.13h25.14l20.62,76.65V23.13h17.85v128.04h-20.62l-24.94-92.75Z"/>
  <path class="cls-1" d="M732.25,53.76c0-10.39,2.62-18.36,7.86-23.94,5.24-5.54,12.81-8.34,22.71-8.34s17.47,2.79,22.71,8.34c5.24,5.59,7.86,13.55,7.86,23.94v66.78c0,10.39-2.62,18.36-7.86,23.95-5.24,5.59-12.81,8.34-22.71,8.34s-17.47-2.79-22.71-8.34c-5.24-5.54-7.86-13.55-7.86-23.95V53.76ZM752.38,121.82c0,4.64.94,7.93,2.82,9.82,1.88,1.89,4.42,2.83,7.61,2.83s5.69-.94,7.61-2.83c1.88-1.89,2.82-5.18,2.82-9.82V52.49c0-4.64-.94-7.93-2.82-9.82-1.88-1.89-4.42-2.83-7.61-2.83s-5.69.94-7.61,2.83c-1.88,1.89-2.82,5.17-2.82,9.82v69.33Z"/>
  <path class="cls-1" d="M338.21,52.11c0-10.39,2.62-18.36,7.86-23.94,5.24-5.54,12.81-8.34,22.71-8.34s17.47,2.79,22.71,8.34c5.24,5.59,7.86,13.55,7.86,23.94v66.78c0,10.39-2.62,18.36-7.86,23.95-5.24,5.59-12.81,8.34-22.71,8.34s-17.47-2.79-22.71-8.34c-5.24-5.54-7.86-13.55-7.86-23.95V52.11ZM358.34,120.17c0,4.64.94,7.93,2.82,9.82,1.88,1.89,4.42,2.83,7.61,2.83s5.69-.94,7.61-2.83c1.88-1.89,2.82-5.17,2.82-9.82V50.84c0-4.64-.94-7.93-2.82-9.82-1.88-1.89-4.42-2.83-7.61-2.83s-5.69.94-7.61,2.83c-1.88,1.89-2.82,5.18-2.82,9.82v69.33Z"/>
  <path class="cls-1" d="M809.25,45.44v-18.5h-6.78v-3.8h18.17v3.76h-6.78v18.55h-4.62Z"/>
  <path class="cls-1" d="M823.12,45.44v-22.3h6.71l4.03,15.2,3.99-15.2h6.75v22.3h-4.16v-17.55l-4.4,17.55h-4.36l-4.4-17.55v17.55h-4.16Z"/>
  <path class="cls-2" d="M65.04,2.4C76.29-.17,88.05-.68,99.5.88c41.08,6.48,72.5,42.04,72.5,84.95,0,47.42-38.39,85.88-85.79,86-2.78,0-5.56-.13-8.32-.38C34.2,167.36,0,130.59,0,85.83,0,45.56,27.67,11.76,65.04,2.4ZM82.16,6.85C28.79-.8-26.28,84.15,31.09,132.67c20.63,13.82,49.09,14.66,69.42-.24,15.64-11.46,19.36-30.29-1.47-38.46-15.92-6.24-34.13-3.2-49.87-9.82-22.55-9.49-20.89-36.12-6.97-52.54,10.08-11.9,25.2-19.53,39.85-24.23l.11-.52h0ZM155.58,57.84c-18.45-64.47-120.87-13.31-83.51,13.62,9.21,4.26,22.26,4.75,32.37,7.76,24.87,6.78,35.33,27.46,20.92,50.25,21.04-14.62,36.94-46.55,30.22-71.63Z"/>
</svg>