<?xml version="1.0" encoding="utf-8"?>
<!-- Generator: Adobe Illustrator 26.0.1, SVG Export Plug-In . SVG Version: 6.00 Build 0)  -->
<svg version="1.1" id="Layer_1" xmlns="http://www.w3.org/2000/svg" xmlns:xlink="http://www.w3.org/1999/xlink" x="0px" y="0px"
	 viewBox="0 0 4029.7 2310.1" style="enable-background:new 0 0 4029.7 2310.1;" xml:space="preserve">
<style type="text/css">
	.st0{display:none;}
	.st1{fill:#FFFFFF;}
	.st2{display:inline;}
	.st3{display:inline;fill:#B55F27;}
	.st4{display:inline;fill:#F7901E;}
	.st5{display:inline;fill:#FEC20E;}
	.st6{display:inline;fill:#FFFFFF;}
	.st7{display:none;fill:#FFFFFF;}
	.st8{fill:#B55F27;}
	.st9{fill:#F7901E;}
	.st10{fill:#FEC20E;}
</style>
<g class="st0">
	<path class="st1" d="M3798,979.7v-97.8h-34.8v-20h93.4v20h-34.8v97.8H3798z"/>
	<path class="st1" d="M3871.5,979.7V861.9h35.6l21.3,80.4l21.3-80.4h35.6v117.8h-22.2v-92.6l-23.5,92.6h-23l-23.5-92.6v92.6H3871.5z
		"/>
	<path class="st2" d="M1028.8,2301.6c-89.1,0-174.7-36.9-257.3-72.1c-80.8-34.8-164.3-70.8-248.2-70.8
		c-53.9,0-105.6,14.8-157.8,45.2c-17.4,10-34.3,17.8-49.5,24.8c-12.2,5.6-23.9,10.9-33.5,16.5c-28.7,19.6-62.1,31.3-96.5,34.3
		l-3.9,0.4h-3.9c-51.7,0-98.7-29.5-120.8-76c-1.3-2.2-2.2-4.3-3-6.1c-5.2-7.8-9.6-16.5-12.6-25.6c0-0.4-0.4-0.4-0.4-0.9
		c-1.3-2.2-2.2-4.3-3.5-6.5c-12.2-18.7-19.1-40-20.9-62.6c-2.2-20.4-2.2-39.1-2.2-55.2c0-224.2,100.8-419.3,308.6-597.5
		c36.1-30.9,73.4-61.7,112.6-92.1c-55.6-11.3-103.4-34.8-140.8-68.7c-36.1-33-63.9-67.8-85.2-106c-1.3-2.6-3-5.2-4.3-7.8
		c-8.3-13.5-15.2-27.4-21.3-40.8c-40.4-71.7-55.2-152.5-46.1-254.2c13.9-151.7,89.5-278.1,215.1-362.8L321.3,420
		c-9.1-9.6-16.5-20.4-21.3-32.6c-2.6-4.3-4.8-8.7-6.5-13c-0.9-1.3-1.3-2.6-1.7-3.9c-0.9-1.7-1.7-3.5-2.6-5.2
		c-1.7-3.5-3.5-7-5.2-10.4c-2.6-3.9-4.8-8.3-6.5-13c-7.8-15.2-12.2-31.7-12.6-48.2c-1.3-59.1,45.6-109.1,105.2-111.2h3h3
		c24.8,0.9,47.8,10.4,66.1,25.6c7-52.1,50.8-93,104.7-94.7h1.3h3h1.7c33,1.3,63,17.4,82.1,43c-3.9-11.3-6.1-23-6.5-35.2v-1.3
		c-0.4-28.2,10-55.2,29.6-76c20.9-22.2,47.8-34.3,76.5-35.2h1.3h3.5h1.7c41.3,1.7,77.8,26.5,94.7,63.9c0.4,0.4,0.4,0.9,0.9,1.3
		c3.5,5.6,6.1,11.3,8.7,17.4c0,0,0,0.4,0.4,0.4c1.3,2.2,2.2,4.3,3.5,7c1.3,2.2,2.2,4.3,3.5,6.5c0.4,0.4,0.4,1.3,0.9,1.7
		c3.5,5.6,6.5,11.3,8.7,17.8c0.9,1.7,1.7,3.5,2.2,5.2c16.1-10.4,35.2-16.9,55.6-17.8h1.7h4.3h2.2c40.4,2.2,75.6,26.5,92.6,62.6
		c4.4,6.5,7.8,13.9,10.4,21.3c0.9,1.7,1.7,3.5,2.6,5.2c16.5-11.7,36.9-19.1,58.7-20h3h3c41.3,1.7,77.4,26.1,94.3,62.6c0,0,0,0,0,0.4
		c4.4,6.5,7.8,13.5,10.4,21.3c1.3,2.2,2.2,4.3,3,6.1c0.9,1.7,1.7,3,2.6,4.8c0,0.4,0.4,0.4,0.4,0.9c4.3,7,7.8,14.3,10.9,22.2
		c6.5,14.3,9.6,29.5,9.6,44.8c0,31.7-13.9,60.8-36.1,81.3l-30.9,93.4c37.4,12.2,60,13.9,76.5,13.9c8.7,0,16.9-0.4,26.1-1.3h1.7
		c17.4-1.3,47.4-16.5,69.1-27.8c10.4-5.2,20-10.4,29.6-14.8c38.7-17.4,76.1-26.5,111.7-26.5c59.5,0,112.6,24.3,149.1,69.1
		c13,14.8,23.9,31.3,32.2,49.5c4.8,8.3,9.1,16.9,13,25.6c2.6,4.8,4.8,10,7,14.8c28.7,58.2,28.7,129.5,0.4,186.8l-0.4,1.3l-0.4,1.3
		c-11.3,21.7-23.5,43-36.1,63.9c20.9-7.4,42.6-11.3,65.2-11.3H1818c18.7,0,36.9,4.3,53.5,12.2c28.7,13.9,50.4,37.8,61.3,67.4
		c1.3,3,3,5.6,4.3,8.7c5.2,7.8,9.1,15.6,12.2,24.3c1.3,2.6,3,5.6,3.9,8.7c16.9,33.9,17.4,73.9,0.4,108.2
		c-23.9,50-45.6,100.8-64.8,153c3-4.3,5.6-8.7,8.7-13c30-47.4,58.7-95.2,85.6-142.5c21.3-43.9,41.3-81.7,56.9-112.1
		c3.5-6.5,10-19.1,10-19.1c31.3-59.1,92.6-95.6,159.5-95.6h110c16.1,0.4,31.7,3.5,46.5,10c29.1,12.6,52.1,35.6,64.8,64.7
		c0.4,0.9,1.3,2.2,1.7,3.5c46.5-118.6,89.1-211.6,113.4-262V679c31.7-64.7,98.7-106.9,170.8-106.9h70.4c18.3,0,36.1,3.5,53,10
		c35.2,13.5,63.9,40.8,80,74.7c3,5.2,5.6,10.4,8.3,16.1c0,0,0,0.4,0.4,0.4c2.2,4.3,4.3,8.3,6.5,12.6c0.4,1.3,1.3,2.2,1.7,3.5
		c3.5,5.6,6.5,12.2,9.1,18.7c17.4,36.5,19.1,78.7,4.8,116v0.4c-18.7,47.4-39.6,105.6-63,173.4l-8.7,24.3
		c-4.8,13.5-9.6,26.9-13.9,40.8c30-37.4,63.9-71.3,101.3-101.2c78.7-63.9,177.7-98.6,279-98.6c3.5,0,7,0,10,0
		c51.3,0,95.2,7.8,132.6,23c20.4-14.8,45.2-23,71.3-23.5h143.4c16.9,0,33,3.5,48.2,10c29.6,12.6,52.6,35.6,65.2,64.7
		c1.7,3,3.5,6.5,5.2,10c1.3,2.2,2.2,4.3,3.5,7c1.3,2.2,2.2,4.3,3.5,7c1.7,3,3.5,6.5,4.8,10c1.7,3,3.5,6.1,4.8,9.6
		c17.8,33,20,72.6,5.2,107.8c-30.9,73.9-57.8,149.9-80,227.3c13-3.5,26.1-5.2,40-5.2c10.9,0,21.7,1.3,32.2,3.5l1.7,0.4l1.7,0.4
		c39.5,10,70,35.6,85.2,71.7c0,0,0,0,0,0.4c1.7,3.5,3.5,6.5,5.2,10c1.3,2.2,2.2,4.3,3.5,6.5c1.3,2.2,2.6,4.8,3.5,7
		c1.7,3,3,6.1,4.3,9.1c0,0,0,0.4,0.4,0.4c2.2,3.5,3.9,7,5.2,10.4c63.5,119.1-93.9,282.4-100.8,289.4
		c-90.8,93.4-206.4,146.9-316.8,147.7h-0.4c-96.5,0-156.9-32.6-194.7-71.7c-66.1,47.4-136.5,71.7-207.3,71.7
		c-107.3,0-171.7-43.9-209.9-89.9c-77.8,57.8-166,89.9-250.8,89.9c-97.8,0-154.7-39.1-187.3-78.7c-73.9,50.8-156,78.7-234.7,78.7
		c-118.6,0-182.1-49.5-215.6-95.2c-84.3,63.4-171.7,95.2-261.2,95.2c-70.4,0-128.2-14.3-173-42.1c-9.1,50.8-26.1,118.2-56.1,185.1
		c-77.8,174.2-209,274.6-379,290.7C1049.2,2301.1,1039.2,2301.6,1028.8,2301.6z M918,1591.1c36.9,18.2,75.2,42.6,121.7,73
		c13,8.3,24.8,12.6,35.2,12.6c36.1,0,80.8-49.5,107.8-96c10.4-18.3,23.5-35.2,39.1-49.1c27.8-27.4,65.6-43.5,104.7-43.5
		c8.3,0,16.5,0.9,24.8,2.2c3.9-61.3,21.3-128.2,36.9-178.6c21.7-69.5,47.4-137.7,76.9-204.7c-13.9,14.3-27.8,28.7-42.6,42.6
		c-119.9,114.7-239.5,220.7-366.4,324.2C1008.4,1512.9,962.3,1552,918,1591.1z M801.1,1075.7c2.2,3.5,3.9,6.5,5.6,10
		c36.9-28.7,73.4-57.8,109.1-88.2c-1.7-0.4-5.6-1.7-5.6-1.7c-43.5-14.3-88.7-23-134.7-25.6c-0.4,0-0.9,0-1.3,0c-5.2,0-10,0-15.2,0.4
		c-14.3,7-20,23-21.7,34.8c12.6,6.1,24.3,14.8,34.3,25.2C784.5,1043.6,794.5,1058.8,801.1,1075.7z"/>
	<path class="st3" d="M1416.4,1742.7c0,20-32.6,439.3-365.9,470.6c-207.7,19.6-432-258.1-728.4-84.7c-27.8,16.1-58.7,26.5-86.1,43
		c-16.9,12.2-36.9,19.1-57.8,21.3c-19.6,0-36.5-11.7-43.5-29.1c-1.7-2.6-3-5.6-4.3-9.1c-3.5-4.3-6.5-9.6-8.3-15.2
		c-0.4-1.3-0.9-2.6-1.7-3.9c-0.9-1.7-1.7-3.5-2.6-5.2c-1.7-2.6-3-5.6-4.3-9.1c-6.1-7.4-10-16.5-10.4-26.9
		c-1.7-16.5-1.7-32.6-1.7-47.8c0-200.3,92.6-372.4,278.1-531.4c91.3-77.8,192.1-155.6,301.2-231.6
		c136.9-92.1,266.8-194.2,388.5-305.5c4.3-3.9,7.8-9.1,10-14.3v-0.4c-47.8-17.4-95.6-34.8-142.5-49.5
		c-51.3-16.9-104.7-26.9-159.1-30c-12.6,0-25.2,0.4-37.4,2.2c-1.3,0-3,0.4-4.3,0.9c-60,19.6-87.4,76.9-87.4,132.5
		c-0.9,10.9,0,22.2,2.2,32.6c1.3,1.3,2.2,3,3.5,4.3c2.2,2.6,4.3,5.2,6.5,7.8c9.1,8.3,20.4,14.8,32.6,18.3c1.7,0.4,3,1.3,4.8,1.7
		c4.3,2.2,8.3,5.2,11.3,9.1c6.5,5.2,10.9,12.6,12.2,20.9c0.9,0.9,1.3,2.2,2.2,3.5c3.5,3.9,6.1,9.1,7.4,14.3c3.5,4.3,6.1,10,7,15.6
		c6.5,9.6,8.3,22.2,3,33.5c-23.9,46.1-76.5,74.3-132.6,88.6c-36.5,8.3-173.4,30-255.1-44.8c-30-27.4-52.2-55.2-68.2-84.7
		c-1.7-2.6-3-5.7-4.3-8.3c-7.4-12.2-13.5-24.3-19.1-36.9c-36.1-61.3-44.3-128.2-37.4-207.3c14.8-161.2,110.8-272,239-334.2l-0.4-0.9
		c-0.4,0-0.9,0.4-0.9,0.4l-2.2-7c-0.4,0-0.9,0.4-0.9,0.4l-2.2-7c-0.4,0-0.9,0.4-0.9,0.4l-2.2-7h-0.4l-2.6-7.4
		c-0.4,0.4-0.9,0.4-1.7,0.4l-2.2-7c-0.4,0-0.9,0.4-0.9,0.4l-50.4-154.3c-8.7-2.2-15.2-9.1-16.5-18.3c0,0,0,0,0-0.4
		c-3-2.6-4.8-6.1-6.1-10c-1.7-2.2-2.6-3.9-3.5-6.5c-1.3-1.7-2.6-3.9-3-6.1c-2.2-3-3.5-6.5-4.3-10c0,0,0,0,0-0.4
		c-3-2.6-4.8-6.1-6.1-10c-2.6-3.5-4.3-7.8-4.3-12.6c-0.4-12.2,9.1-22.6,21.3-23c9.6,0.4,17.4,7,20,16.1c0.9,1.3,1.7,2.6,2.6,3.9
		c3,3,5.2,7.4,5.7,12.2c0.4,1.3,0.9,2.2,1.3,3.5c1.7,2.2,2.6,4.3,3.5,7c1.3,2.2,2.6,3.9,3.5,6.5c0.9,1.3,1.7,2.6,2.6,3.9
		c3,3,5.2,7.4,5.6,12.2c1.7,3,2.6,6.5,2.6,10.4c0,4.8-1.3,9.1-3.5,12.6c20.9,21.3,46.1,40.4,70.8,40.4c5.2,0,10-1.3,14.3-3.9
		c3-2.2,5.6-4.3,8.3-7c5.6-6.1,10.4-13.5,13.9-20.9c6.5-13.9,11.3-28.2,14.8-43c3.9-15.2,7-30.9,9.1-44.8c0.4-2.6,0.9-5.2,1.3-7.8
		c0-0.4,0-0.9,0-0.9c-1.3-1.7-2.6-3.9-3-6.1c-1.7-2.2-3-4.8-3.5-7.8c-1.7-2.6-3-5.6-3.5-9.1c-0.4-0.4-0.4-0.9-0.9-1.3
		c-2.6-2.6-4.3-5.6-5.2-9.1c-2.6-3.9-4.3-8.3-4.3-13c-0.4-12.2,9.1-22.2,21.3-22.6c9.6,0.4,17.4,7,20,16.1c0.9,1.3,1.7,2.6,2.6,3.9
		c3,3,5.2,7.4,5.7,12.2c0.4,1.3,0.9,2.2,1.3,3.5c1.3,2.2,2.6,4.3,3.5,6.5c1.7,2.2,2.6,4.3,3.5,7c0.9,1.3,1.7,2.6,2.6,3.9
		c3,3,5.2,7.4,5.6,12.2c1.7,3,2.6,6.5,2.6,10.4c0,9.1-5.2,17.4-13.9,20.9c3.5,8.3,7,16.9,9.6,25.6c11.7,15.6,25.6,24.8,40.9,17.4
		c10.4-5.6,19.6-13.9,26.5-23.9l4.8-7c5.6-8.7,10.9-17.8,15.6-26.9c3.9-7.8,8.7-18.3,11.3-24.3c2.6-6.1,5.2-12.6,7.8-19.1
		c2.6-6.5,4.8-13,7-19.6c1.3-3.5,2.2-6.5,3.5-9.6l6.1-18.7c4.8-15.2,8.7-29.1,11.7-40.8c-1.3-2.2-2.2-4.8-2.6-7.4
		c0-0.4-0.4-0.4-0.4-0.9c-2.6-2.6-4.8-5.6-5.6-9.1c-2.6-3.9-4.4-8.7-4.4-13.5c-0.4-12.2,9.1-22.2,21.3-22.6h0.4
		c9.6,0.4,17.4,7,20,15.6c1.3,1.7,2.2,3.5,3,5.6c2.2,2.6,3.5,5.6,4.4,8.7c0.9,1.7,2.2,3.5,2.6,5.2c1.3,2.2,2.6,4.3,3.5,6.5
		c1.7,2.2,2.6,4.3,3.5,7c1.3,1.7,2.2,3.5,3,5.6c2.2,2.6,3.5,5.6,4.3,8.7c2.2,3.5,3.9,7.8,3.5,12.2c0.4,10.4-6.5,19.6-16.5,22.2
		c2.2,8.7,5.2,19.1,8.7,31.3c6.1,20.9,14.3,45.6,23.5,70c1.3,3,2.6,6.1,3.9,9.1c10.4,16.5,21.7,29.1,33.9,34.8
		c26.1,12.6,48.7-23.9,63.5-56.9c3-10.9,7-21.3,11.3-31.3c-0.4-1.3-0.9-2.2-1.3-3.5c-0.9-1.3-1.3-2.6-1.7-3.9
		c-2.2-2.2-3.5-4.8-4.3-7.8c-2.6-3.9-4.4-8.3-4.4-13.5c-0.4-12.2,9.1-22.2,21.3-23c9.6,0.4,17.4,7,20,16.1c1.3,1.7,2.2,3,3,4.8
		c2.2,2.6,3.5,6.1,4.3,9.6c0.9,1.7,1.7,3.5,2.6,5.2c1.3,2.2,2.6,4.3,3.5,6.5c1.7,2.2,2.6,4.3,3.5,7c1.3,1.7,2.2,3,3,4.8
		c2.2,2.6,3.5,6.1,4.3,9.6c2.2,3.5,3.9,7.4,3.5,12.2v0.4c0.4,12.2-9.1,22.2-21.3,22.2h-2.2c1.7,19.1,6.5,56.1,16.1,88.6
		c6.1,6.1,13.5,10,21.3,10c14.8-0.9,29.1-6.1,40.9-14.8c19.6-13.9,36.9-30.9,51.3-49.5l6.1-7.8c0.9-1.3,1.7-2.6,2.6-3.5
		c-0.4-1.3-0.9-2.2-0.9-3.5c-0.9-1.3-1.3-2.2-1.7-3.5c-2.2-2.2-3.5-4.8-4.4-7.8c-3-3.9-4.3-8.7-4.3-13.9c-0.4-12.2,9.1-22.6,21.3-23
		c10,0.4,17.4,7,20,16.1c1.3,1.7,2.2,3,3,5.2c2.2,2.6,3.5,6.1,4.3,9.6c0.9,1.7,1.7,3.5,2.6,5.2c1.3,2.2,2.6,4.3,3.5,6.5
		c1.3,2.2,2.6,4.3,3.5,6.5c1.3,1.7,2.2,3,3,5.2c2.2,2.6,3.5,6.1,4.3,9.6c2.2,3.5,3.9,7.4,3.5,12.2c0.4,12.2-9.1,22.2-21.3,22.6
		l-66.5,202.9c124.3,56.1,175.1,51.7,218.6,48.7c46.5-3,95.2-34.8,129.1-50.4c75.6-34.3,129.1-16.5,158.2,20.4
		c9.1,10,16.1,21.3,21.3,33.5c4.3,7,8.3,13.9,11.3,21.7c2.6,4.3,4.8,9.1,6.5,13.9c17.8,34.3,19.1,78.2,1.7,112.5
		c-62.6,117.8-143.4,225.1-239.5,317.6c-114.3,109.1-233.4,215.1-361.2,319.4c-91.3,74.3-170.4,143.8-239.9,208.6
		c-8.3,7.8-16.1,15.6-24.3,23.5c96-2.2,140.8,23.5,255.1,97.8c136.9,89.1,240.8-69.1,266.4-113.4c6.1-10.9,13.9-20.9,23.5-29.1
		c16.1-16.9,40-23.5,62.6-16.5c19.1,7.4,26.9,16.9,35.6,35.6c1.7,3.5,3.5,7,5.6,11.3c1.3,2.6,3,5.7,4.3,8.7c1.3,2.2,2.2,4.3,3.5,6.5
		c1.3,2.2,2.2,4.3,3.5,6.5c1.7,3.5,3.5,7,5.6,11.3c3,5.2,6.1,11.7,9.1,19.1C1416.9,1698,1418.6,1720.6,1416.4,1742.7z
		 M3428.2,1779.7c-82.6,0-130.8-30-155.2-78.7c-1.3-2.6-2.6-4.8-4.8-7c-11.7-13.5-31.7-14.8-45.2-3
		c-56.9,52.6-123.9,88.2-196.9,88.2c-73,0-126-26.5-157.3-79.5c-4.3-7.4-8.3-15.2-12.2-23c-3.5-6.5-7-13-9.6-19.6
		c-2.6-4.3-4.8-8.7-7-13.5c-0.9-1.7-1.7-3.5-3-5.2c-5.6,6.1-11.7,13-18.3,19.6c-66.1,67.8-159.1,120.8-253.4,120.8
		c-61.3,0-104.3-20-129.1-59.5c-5.2-8.3-10-16.9-13.9-25.6c-3-5.7-6.1-11.7-8.7-17.8c-0.4-0.9-0.9-1.7-1.3-2.6
		c-2.2-4.3-4.3-8.7-6.5-13c-1.3-2.6-3-5.2-4.3-7.8l-4.8,5.2c-66.1,67.8-157.3,120.8-253.4,120.8c-85.6,0-136-31.7-159.5-83.4
		c-3.5-5.7-6.1-11.7-8.7-18.3c0,0,0-0.4-0.4-0.4c-2.6-4.8-5.2-9.6-7.4-14.8c-0.4-0.4-0.4-0.9-0.9-1.3c-12.6-10.9-31.7-11.3-44.3,0.4
		c-77.4,71.7-163.8,117.8-256,117.8c-76.1,0-129.1-20-159.1-57.8c-10-12.6-17.8-26.1-24.8-40.4c-3.5-6.5-7-13-10-20
		c-2.2-4.3-4.3-8.7-6.5-13c-7-12.6-12.6-26.1-16.9-39.5c-8.7-24.8-13-50.8-12.2-77.3c0-4.8-8.3-61.3,33-193.8
		c35.6-114.7,83-225.5,140.8-331.1c19.6-34.8,56.1-56.5,96-56.5h110.4c5.2,0,10.9,1.3,15.6,3.5c10.4,4.8,16.9,14.3,19.1,24.3v0.4
		c2.2,3,3.5,6.1,4.8,9.1c0.9,1.3,1.3,2.6,2.2,4.3c1.3,1.7,2.2,3.5,3,5.2c3.5,4.3,5.6,9.1,6.5,14.3v0.4c2.2,3,3.5,6.1,4.8,9.1
		c6.1,10,7,22.6,1.3,33.9c-41.7,87.3-76.5,177.3-104.3,269.8c-12.2,36.9-18.7,75.6-20,114.3c0,3.5,0.4,8.7,1.3,16.1
		c7.8,2.6,16.9,3.9,28.2,3.9c54.8,0,124.3-77.8,190.4-179c31.3-49.1,60.8-98.6,88.7-147.7l1.3-2.6c25.2-52.1,48.2-95.2,66.1-129.5
		c16.5-30.4,48.2-49.5,83-49.5h109.1c4.8,0,9.6,1.3,13.9,3c10,4.3,17.4,13,20.4,22.6c0.4,0.9,1.3,2.2,1.7,3c2.2,3,3.5,6.1,4.8,9.6
		c0.9,1.3,1.7,2.6,2.2,3.9c1.7,2.2,3,4.8,3.9,7.8c1.7,2.6,3,5.7,3.9,8.7c0.4,0.9,1.3,2.2,1.7,3c2.2,3,3.5,6.1,4.8,9.6
		c5.6,9.6,7,21.7,2.2,33c-36.9,87.8-67.8,178.2-92.6,269.8c-10,37.4-15.6,75.6-16.5,114.3c0,4.3,0.4,10,1.3,17.4
		c5.6,1.7,12.6,2.6,20.4,2.6c45.6,0,78.7-38.7,92.1-61.7c0.4-0.9,0.9-1.3,1.3-2.2l2.6-5.7c4.3-23.9,10-51.3,18.3-83
		c18.7-76.9,42.2-152.5,69.5-226.8c54.8-152.5,112.6-283.3,150.8-362.4c17.4-35.6,53-57.8,92.6-57.8h70.4c7.4,0,14.8,1.3,21.7,3.9
		c16.5,6.5,28.3,19.1,33.9,34.3c3,3.9,5.2,8.7,7,13.5c0.9,1.3,1.7,2.6,2.2,3.9c1.7,2.6,3,5.6,4.3,8.7c1.3,2.2,2.6,4.8,3.5,7.4
		c3,3.9,5.2,8.7,7,13.5c7.8,14.8,9.6,32.6,3,49.1c-21.7,54.8-44.8,120.8-73,200.3c-28.2,79.5-51.3,159-71.3,236.8
		c-15.6,52.1-26.5,106-33,159.9c0,1.7,0,3,0,4.8c0,26.9-1.7,40.4-1.7,43.9c0,5.2,0.4,10.4,0.9,15.2c6.1,3,13,4.8,20.9,4.8
		c45.2,0,77.8-37.4,91.7-60.8l1.7-3.5c3.5-42.6,23-99.1,59.1-170.8c36.9-75.2,90.4-141.2,155.6-193.8
		c66.1-53.4,148.6-81.7,233.4-79.5c57.8,0,98.2,11.3,127.3,30.4c0.4,0.4,0.9,0.4,1.3,0.9c16.1,9.1,36.1,3,45.2-12.6
		c6.5-11.7,18.3-18.7,31.7-18.7h143c4.8,0,10,0.9,14.3,3c10.4,4.3,17.4,13,20.4,22.6c0.4,1.3,1.3,2.2,1.7,3.5c1.7,2.6,3,5.2,4.3,7.8
		c1.3,2.2,2.6,4.3,3.5,6.5c1.3,2.2,2.6,4.3,3.5,6.5c1.7,2.6,3,5.6,3.9,8.7c0.4,1.3,1.3,2.2,1.7,3.5c1.7,2.6,3,5.2,4.3,7.8
		c6.5,10,7.8,22.6,3,34.3c-36.9,87.8-67.8,178.2-92.6,269.8c-10,37.4-15.6,75.6-16.5,114.3c0,4.3,0.4,10,1.3,17.4
		c5.6,1.7,12.6,2.6,20.4,2.6c28.2-0.9,54.8-13.9,72.6-35.2c16.9-20.4,43.5-29.5,69.5-24.3c15.2,3.9,23.5,12.6,27.4,24.3
		c0.9,1.7,1.7,3,2.6,4.8c1.3,2.2,3,4.8,3.9,7.4c1.3,2.2,2.6,4.3,3.5,6.5c1.3,2.2,2.6,4.3,3.5,6.5c1.3,2.2,2.6,4.8,3.5,7.8
		c0.9,1.7,1.7,3,2.6,4.8c1.3,2.2,3,4.8,3.9,7.4c25.2,40.4-32.2,136-84.7,190.3C3616.8,1726.2,3524.2,1779.2,3428.2,1779.7z
		 M3100.1,1455.5c4.3,1.3,9.1,2.2,14.8,2.2c44.8,0,97.8-64.7,119.1-102.6l24.8-44.8c22.6-41.7,40.8-85.6,54.8-130.8
		c3.9-13.5,6.1-26.9,7.4-40.8c-2.6-0.4-5.6-0.9-9.1-0.9c-34.8,0-67.8,18.3-99.5,56.5c-32.2,39.1-59.1,82.6-79.5,129.1
		c-19.1,40.4-30.4,84.3-33,129.1v3H3100.1z"/>
	<path class="st4" d="M1384.7,1623.2c-11.3-26.1-18.3-37.4-40.4-46.1c-22.2-7-46.5-0.4-62.6,16.5c-9.6,8.3-17.4,18.3-23.5,29.1
		c-25.6,44.3-129.5,202.5-266.4,113.4c-118.2-77.3-162.1-101.7-265.1-97.8c-13.5,4.8-28.7-2.6-33-16.1c-3.5-9.6-0.4-20.4,7-27.8
		c10.9-10.4,22.2-20.9,33-32.2c69.5-64.7,149.1-134.3,239.9-208.6c127.3-104.3,246.9-210.3,361.2-319.4
		c96-92.6,176.9-199.9,239.5-317.6c40.8-82.1-22.2-218.1-171.7-150.4c-33.9,15.6-83,47.4-129.1,50.4c-46.5,3-101.3,7.8-246-61.3
		c-15.2-7.4-30.4-13.9-45.6-19.5c-297.7-115.6-724-4.4-757.1,351.1c-10.4,114.3,11.7,203.4,101.7,285.1
		c81.7,74.7,218.6,53,255.1,44.8c55.6-14.3,108.6-43,132.5-88.6c7.8-16.5,0.9-36.1-15.6-44.3c-1.3-0.9-3-1.3-4.8-1.7
		c-17.8-4.8-33.5-15.6-43.9-30.9c-20.4-23-30.4-53.4-28.2-84.3c0-55.6,27.4-113,87.4-132.5c1.3-0.4,3-0.9,4.3-0.9
		c12.6-1.7,24.8-3,37.4-3c53.9,3,107.3,13,159.1,30c48.7,15.2,98.2,33,147.8,51.3c20.4,8.3,30.4,31.3,22.2,51.7
		c-2.2,5.7-5.6,10.4-10,14.3c-121.7,111.2-251.6,213.4-388.5,305.5c-109.1,76-210.3,153.8-301.2,231.6
		c-185.6,159-278.1,331.5-278.1,531.9c0,15.2,0,31.3,1.7,47.8c1.3,25.2,22.2,44.8,47.4,44.8c20.9-1.7,40.4-9.1,57.8-21.3
		c27.4-16.5,58.2-26.5,86.1-43c296.4-173.4,520.6,104.7,728.4,84.7c333.3-31.3,365.9-451,365.9-470.6
		C1391.7,1667.6,1389.9,1645,1384.7,1623.2z M3656.4,1605.4c63-64.7,132.6-188.6,60.8-206.8c-25.6-5.2-52.6,3.9-69.5,24.3
		c-18.3,21.7-44.8,34.3-72.6,35.2c-28.2,0-43-10-44.8-31.3c-1.7-21.7-3.5-33-3.5-41.3c0.9-38.7,6.5-76.9,16.5-114.3
		c24.8-92.1,55.6-182.1,92.6-269.8c7.8-18.7-0.9-40.4-19.6-48.2c-4.8-1.7-9.6-3-14.3-3h-143c-13,0-25.2,7.4-31.7,18.7
		c-9.1,16.1-29.1,21.7-45.2,12.6c-0.4,0-0.9-0.4-1.3-0.9c-29.1-19.6-69.5-30.4-127.3-30.4c-84.7-2.2-167.8,26.1-233.4,79.5
		c-65.6,52.6-118.6,118.6-155.6,193.8c-36.1,71.7-55.2,128.6-59.1,170.8l-1.7,3.5c-13.9,23.5-46.5,60.8-91.7,60.8
		c-31.3,0-47.8-24.8-47.8-73c0-3,1.3-16.5,1.7-43.9c0-1.7,0-3,0-4.8c6.5-54.3,17.4-107.8,33-159.9c20-77.8,43-157.3,71.3-236.8
		c28.3-79.5,51.3-145.6,73-200.3c11.7-30.9-3.5-65.2-33.9-76.9c-7-2.6-14.3-3.9-21.7-3.9h-70.4c-39.6,0-75.2,22.6-92.6,57.8
		c-38.2,79.5-96,210.3-150.8,362.4c-27.4,74.3-50.9,149.9-69.5,226.8c-7.8,31.3-13.9,58.7-18.3,83l-2.6,5.6
		c-0.4,0.9-0.9,1.7-1.3,2.2c-13.5,23-46.5,61.7-92.1,61.7c-28.2,0-43-10-44.8-31.3c-1.7-21.7-3.5-33-3.5-41.3
		c0.9-38.7,6.5-76.9,16.5-114.3c24.8-92.1,55.6-182.1,92.6-269.8c8.3-18.7-0.4-40.4-19.6-48.7c-4.3-1.7-9.1-3-13.9-3h-108.2
		c-34.8,0-66.5,19.1-83,49.5c-18.3,34.3-40.9,77.3-66.1,129.5l-1.3,2.6c-27.8,49.5-57.4,98.6-88.7,147.7
		c-66.1,100.8-135.6,179-190.4,179c-31.3,0-49.5-10-51.3-31.3c-1.7-21.7-3.5-34.8-3.5-41.3c1.3-38.7,7.8-77.3,20-114.3
		c27.8-92.6,62.6-182.9,104.3-269.8c8.7-17.8,1.3-39.1-16.5-47.8c-4.8-2.2-10-3.5-15.6-3.5h-110.4c-40,0-76.5,21.7-96,56.5
		c-57.8,105.6-104.7,216.4-140.8,331.1c-41.3,132.5-33,188.6-33,193.8c-1.7,49.5,13.9,98.2,44.8,137.3c30,38.2,83,57.8,159.1,57.8
		c92.6,0,179.1-46.1,256-117.8c13.5-12.2,34.3-11.3,46.9,2.2c3.5,3.5,5.7,7.8,7.4,12.6c19.1,63.4,70.4,103,166.9,103
		c96,0,187.3-53,253.4-120.8l10.4-11.3c4.8,25.6,14.8,50.4,29.6,72.6c24.8,39.5,67.8,59.5,129.1,59.5c94.3,0,187.3-53,253.4-120.8
		c7.8-7.8,15.2-16.5,21.7-23.5c6.5,23,15.6,44.8,27.8,65.2c31.3,53,84.3,79.5,157.3,79.5c73,0,139.9-36.1,196.9-88.2
		c13.5-11.7,33.5-10.4,45.2,3c1.7,2.2,3.5,4.3,4.8,7c24.3,48.7,73,78.7,155.2,78.7C3497.7,1726.2,3590.3,1673.2,3656.4,1605.4z
		 M3322.2,1130.1c-0.9,16.9-3.5,33.5-8.3,49.5c-13.9,45.2-32.2,89.1-54.8,130.8l-24.8,44.8c-21.7,38.2-74.3,102.6-119.1,102.6
		c-28.2,0-41.3-18.3-41.3-53v-4.8c2.6-44.8,13.9-88.6,33-129.1c20.4-46.5,47.4-89.9,79.5-129.1c31.3-38.2,64.8-56.5,99.5-56.5
		C3325.2,1085.3,3322.2,1117,3322.2,1130.1z M373.8,313.1c1.7,0,3,0,4.8,0l67.8,206c26.5-11.3,53-21.3,80.8-30
		c29.6-9.1,59.5-16.5,90.4-21.7c38.2-7,76.9-10.4,116-10.4c51.3,0,102.1,5.2,151.7,16.5c48.7,11.3,96.5,27.8,141.7,48.7l69.1-209
		c12.2-0.4,21.7-10.4,21.3-22.6c0.4-12.2-9.1-22.6-21.3-23c-12.2,0.4-21.7,10.9-21.3,23c-0.4,10.4,6.5,19.6,16.5,22.2
		c-2.2,3-4.8,6.5-7.4,10.4l-6.1,7.8c-14.8,19.1-32.2,35.6-51.3,49.5c-11.7,8.7-26.1,13.9-40.9,14.8c-45.2,0-60-113.4-63.9-151.7h2.2
		c12.2,0,21.7-10,21.7-22.2c0.4-12.2-9.1-22.6-21.3-23c-12.2,0.4-21.7,10.9-21.3,23c0,9.6,5.7,18.3,14.8,21.7
		c-6.1,12.2-10.9,25.2-14.3,38.2c-14.8,33-37.4,69.5-63.5,56.9c-39.1-18.7-70.4-107.8-87.8-166.4c-3.5-12.2-6.5-22.6-8.7-31.3
		c10-2.6,16.9-12.2,16.5-22.2c0.4-12.2-9.1-22.2-20.9-22.6h-0.4c-12.2,0.4-21.7,10.4-21.3,22.6c-0.4,9.6,5.6,18.7,15.2,21.7
		c-3.5,12.6-8.3,30.4-14.3,49.5l-6.1,18.7c-0.9,3-2.2,6.1-3.5,9.6c-2.2,6.5-4.8,13-7,19.6c-2.6,6.5-5.2,13-7.8,19.1
		c-2.6,6.1-7.4,16.5-11.3,24.3c-4.8,9.1-10,18.3-15.6,26.9l-4.8,7c-7,10-16.1,18.3-26.5,23.9c-26.1,12.6-48.7-23.5-63.5-57.4
		c-3.5-13-8.3-26.1-14.3-38.2c8.7-3.5,14.8-11.7,14.3-21.3c0.4-12.2-9.1-22.6-21.3-23c-12.2,0.4-21.7,10.4-21.3,22.6
		c-0.4,12.2,9.1,22.2,20.9,22.6h0.4h2.2c0,5.2-1.3,11.7-2.2,19.6c0,4.3-1.3,8.7-1.7,13c-2.2,13.9-5.2,29.5-9.1,44.8
		c-3.5,14.8-8.3,29.1-14.8,43c-3.5,7.8-8.3,14.8-13.9,20.9c-2.6,2.6-5.2,4.8-8.3,7c-4.3,2.6-9.1,3.9-14.3,3.9
		c-27.4,0-56.1-23.5-77.8-47.4c-10.9-11.7-20.4-24.3-29.6-37.4c8.3-3.5,13.9-11.7,13.5-20.9c0.4-12.2-9.1-22.6-21.3-23
		c-12.2,0.4-21.7,10.9-21.3,23C351.7,303.1,361.7,313.1,373.8,313.1z"/>
	<path class="st5" d="M373.8,313.1c1.7,0,3,0,4.8,0l67.8,206c26.5-11.3,53-21.3,80.8-30c29.6-9.1,59.5-16.5,90.4-21.7
		c38.2-7,76.9-10.4,116-10.4c51.3,0,102.1,5.2,151.7,16.5c48.7,11.3,96.5,27.8,141.7,48.7l69.1-209c12.2-0.4,21.7-10.4,21.3-22.6
		c0.4-12.2-9.1-22.6-21.3-23c-12.2,0.4-21.7,10.9-21.3,23c-0.4,10.4,6.5,19.6,16.5,22.2c-2.2,3-4.8,6.5-7.4,10.4l-6.1,7.8
		c-14.8,19.1-32.2,35.6-51.3,49.5c-11.7,8.7-26.1,13.9-40.9,14.8c-45.2,0-60-113.4-63.9-151.7h2.2c12.2,0,21.7-10,21.7-22.2
		c0.4-12.2-9.1-22.6-21.3-23c-12.2,0.4-21.7,10.9-21.3,23c0,9.6,5.7,18.3,14.8,21.7c-6.1,12.2-10.9,25.2-14.3,38.2
		c-14.8,33-37.4,69.5-63.5,56.9c-39.1-18.7-70.4-107.8-87.8-166.4c-3.5-12.2-6.5-22.6-8.7-31.3c10-2.6,16.9-12.2,16.5-22.2
		c0.4-12.2-9.1-22.2-20.9-22.6h-0.4c-12.2,0.4-21.7,10.4-21.3,22.6c-0.4,9.6,5.6,18.7,15.2,21.7c-3.5,12.6-8.3,30.4-14.3,49.5
		l-6.1,18.7c-0.9,3-2.2,6.1-3.5,9.6c-2.2,6.5-4.8,13-7,19.6c-2.6,6.5-5.2,13-7.8,19.1c-2.6,6.1-7.4,16.5-11.3,24.3
		c-4.8,9.1-10,18.3-15.6,26.9l-4.8,7c-7,10-16.1,18.3-26.5,23.9c-26.1,12.6-48.7-23.5-63.5-57.4c-3.5-13-8.3-26.1-14.3-38.2
		c8.7-3.5,14.8-11.7,14.3-21.3c0.4-12.2-9.1-22.6-21.3-23c-12.2,0.4-21.7,10.4-21.3,22.6c-0.4,12.2,9.1,22.2,20.9,22.6h0.4h2.2
		c0,5.2-1.3,11.7-2.2,19.6c0,4.3-1.3,8.7-1.7,13c-2.2,13.9-5.2,29.5-9.1,44.8c-3.5,14.8-8.3,29.1-14.8,43
		c-3.5,7.8-8.3,14.8-13.9,20.9c-2.6,2.6-5.2,4.8-8.3,7c-4.3,2.6-9.1,3.9-14.3,3.9c-27.4,0-56.1-23.5-77.8-47.4
		c-10.9-11.7-20.4-24.3-29.6-37.4c8.3-3.5,13.9-11.7,13.5-20.9c0.4-12.2-9.1-22.6-21.3-23c-12.2,0.4-21.7,10.9-21.3,23
		C351.7,303.1,361.7,313.1,373.8,313.1z"/>
	<path class="st6" d="M1003.6,2129c-64.8,0-135.2-30.4-210.3-62.6c-87.8-37.8-187.3-80.4-296-80.4c-76.9,0.4-152.5,21.7-218.2,61.7
		c-12.6,7-25.6,13.5-38.7,19.1c-16.5,7-32.2,15.2-47.8,23.9c-11.7,8.7-25.6,14.3-40.4,16.5c-7.8,0-14.3-6.1-14.8-13.9
		c-1.3-19.1-1.7-33-1.7-46.1c0-186.8,87.4-352.4,266.4-506.2c90.8-77.8,191.2-155.1,298.1-229.9c138.2-93,269.4-196.4,392.4-308.5
		c19.1-16.9,27.4-43,22.6-68.2c-4.8-24.8-22.2-45.6-46.1-54.3c-49.5-18.3-99.5-36.1-149.1-51.7c-54.8-18.3-111.7-28.7-169.1-31.3
		c-13.9,0-28.2,1.3-42.2,3.5c-3,0.4-6.5,1.3-9.6,2.2c-66.9,21.3-110.4,84.7-110.8,162.1c-2.2,38.7,10.4,76.5,35.2,106
		c14.8,20.9,36.5,35.6,61.3,42.2c-22.6,42.6-79.5,62.6-111.3,70.8c-26.1,5.6-53,8.3-80,8.3c-43.5,0-103.4-7.8-144.7-45.6
		c-75.2-68.2-101.3-143-90.8-257.7c23-251.6,259-364.1,482.4-364.1c78.2-0.4,156.5,13.9,229.5,41.3c14.8,5.7,29.1,11.7,43,18.7
		c122.6,58.7,186,66,227.3,66c12.6,0,23.9-0.9,33-1.3h1.7c40.9-5.6,80.4-19.1,116-40.4c9.1-4.8,17.4-9.1,25.2-12.6
		c19.1-9.6,40.4-14.8,61.7-15.2c25.2-0.9,48.7,11.7,62.1,33c16.1,26.5,17.8,59.5,4.3,87.3c-60.8,114.3-139.1,218.1-231.6,308.1
		c-117.3,112.5-234.7,216.4-359,318.1c-86.5,70.8-167.8,141.7-241.6,210.3c-11.7,10.9-23.5,21.7-34.3,33
		c-17.8,16.5-23,42.6-13.9,64.7c8.7,22.6,30.4,37.4,54.8,37.4c4.8,0,9.1-0.4,13.5-1.3H748c79.5,0,120,23.9,225.6,92.6
		c29.6,20.4,64.8,31.7,100.8,32.2c110,0,185.1-109.9,212.1-156.9c4.3-7.8,10-14.3,16.5-20.4c6.1-6.1,14.3-10,23-11.3
		c2.2,0,3.9,0.4,6.1,0.9c9.6,3.9,12.2,4.8,22.2,28.2c3.5,17.8,4.8,35.6,3.9,53.9c0,3.9-26.1,408.5-335.9,437.6
		c-6.1,0.4-12.2,0.4-18.3,0L1003.6,2129z M3403,1692.8c-63.9,0-105.2-19.6-125.6-60.4c-10.9-22.6-33.9-36.9-59.1-36.9
		c-16.1,0-31.7,5.6-43.5,16.5c-57.8,53.4-114.7,79.5-174.3,79.5c-59.1,0-103.9-20.9-128.6-63.4c-10.9-17.8-19.1-37.4-24.8-57.4
		l-16.5-59.1l-40,46.5c-6.1,7.4-13,14.8-20,22.2c-67.8,69.5-153.8,110.8-229.5,110.8c-49.5,0-83-14.3-101.3-43.9
		c-12.2-18.7-20.9-39.5-25.2-61.7l-13.5-63l-47.4,51.7c-1.7,2.2-3.5,4.3-5.6,6.5c-67.8,69.5-153.8,110.8-229.5,110.8
		c-76.1,0-119.1-26.1-135.2-79.5c-8.7-27.8-34.3-46.9-63.5-46.9c-16.5,0-32.6,6.5-45.2,17.8c-77.4,72.1-156,108.6-233.4,108.6
		c-64.8,0-109.5-15.2-132.5-45.2c-26.1-33.5-39.1-74.7-37.4-116.9c0-0.9,0-2.2,0-4.3c-1.7-23.5,0-78.2,31.7-179.5
		c35.2-112.5,81.3-221.6,138.2-325c13.5-23.9,38.7-39.1,66.1-39.1H1818c0.9,0,1.7,0.4,2.2,1.3c0.4,0.9,0.4,1.7,0,2.6
		c-42.6,89.1-78.2,181.2-106.5,275.5c-12.6,40-20,81.3-20.9,123c0,6.1,0,14.3,1.7,26.5l1.7,17.4c0.9,14.3,10.4,61.7,84.3,61.7
		c61.3,0,132.5-63.4,218.2-193.8c31.7-49.5,61.7-99.5,90-149l2.6-4.8c20.4-43.9,39.6-80,56.5-112.1l8.3-16.5
		c10.4-19.6,31.3-32.2,53.5-32.2h108.6c1.3,0,2.6,0.4,3.5,1.7c0.4,1.3,0.4,2.6,0,3.9l-3,7.4c-36.5,86.9-66.9,176.4-91.3,267.7
		c-10.9,40-16.5,80.8-17.4,121.7c0,7,0.9,15.2,1.7,26.5c0,5.2,0.9,11.3,1.7,17.8c1.3,14.3,10,61.7,77.8,61.7
		c55.2,0,98.7-40.4,120.8-78.2c0.9-1.3,1.3-2.6,2.2-4.3l4.8-9.6l0.9-4.8c4.8-25.6,10.4-52.1,17.8-80.4
		c18.7-75.6,41.3-150.3,68.2-223.4c59.5-165.6,119.1-296.4,149.1-359.8c11.7-23.9,36.1-39.1,62.6-39.1h70.4
		c8.7,0,16.9,4.3,21.7,11.7c5.2,7,6.1,16.5,3,24.3c-22.6,56.9-47.8,126.9-73.4,201.6c-25.2,74.7-49.5,152.1-72.1,239.4
		c-15.6,54.3-26.5,109.5-33,165.6c0,2.2,0,4.8,0,7c0,18.7-0.9,30.4-1.3,36.9c0,3.5,0,5.7,0,7c0,98.2,62.1,106,81.3,106
		c68.7,0,109.1-59.1,119.9-76.9c0.9-1.7,2.2-3.5,2.6-5.6l3-5.6v-6.1c3.5-38.2,22.2-91.7,55.6-158.6c34.8-70.8,84.7-133,146.9-182.1
		c60-48.2,135.2-73.4,212.1-71.3c37.8-2.2,75.6,6.5,109.1,25.2c10.4,7,23,10.9,35.6,10.9c24.3,0,46.5-13.5,57.8-34.8
		c0.4-0.9,1.7-1.7,2.6-1.7h143c1.3,0,2.6,0.4,3,1.7c0.4,1.3,0.4,2.6,0,3.9l-3,7.4c-36.5,86.9-66.9,176.4-91.7,267.7
		c-10.4,40-16.1,80.8-16.5,121.7c0,7,0,15.2,1.7,26.5c0,5.2,0.9,11.3,1.7,17.8c0.9,14.3,10,61.7,77.8,61.7
		c37.4-0.9,72.6-17.4,96.9-46.1c7.4-9.1,18.3-14.3,30-15.2c2.2-0.4,4.4-0.4,6.5,0c3.5,0.9,4.4,1.7,4.4,1.7
		c9.6,12.6-21.3,88.2-80.8,149.9C3565.1,1651.5,3479,1692.8,3403,1692.8z M3285.6,1052.3c-45.2,0-87.4,23-124.7,68.2
		c-34.3,41.7-62.6,87.3-84.3,136.4c-20.9,44.3-33,92.1-36.1,141.2v6.5c0,80,56.9,86,74.3,86c63.9,0,124.7-78.2,148.2-119.5
		l25.2-45.2c23.5-43.9,42.6-90.4,56.9-137.7c5.2-19.1,8.7-38.7,9.6-58.7v-2.2c2.2-20.4-4.8-40.8-18.3-56.5
		C3322.6,1058.4,3304.3,1051.4,3285.6,1052.3z"/>
	<path class="st6" d="M3834.6,981.1V861.4h50.9c12.8,0,22.1,1.1,27.9,3.2c5.8,2.2,10.4,6,13.9,11.5c3.5,5.5,5.2,11.8,5.2,18.9
		c0,9-2.6,16.4-7.9,22.3c-5.3,5.9-13.2,9.5-23.7,11.1c5.2,3,9.5,6.4,12.9,10c3.4,3.6,8,10.1,13.8,19.4l14.6,23.4h-28.9l-17.5-26
		c-6.2-9.3-10.5-15.2-12.7-17.6c-2.3-2.4-4.7-4.1-7.3-5c-2.6-0.9-6.6-1.3-12.2-1.3h-4.9v50H3834.6z M3858.7,912h17.9
		c11.6,0,18.8-0.5,21.7-1.5c2.9-1,5.1-2.7,6.8-5.1c1.6-2.4,2.4-5.4,2.4-9c0-4-1.1-7.3-3.2-9.8c-2.2-2.5-5.2-4-9.1-4.7
		c-2-0.3-7.8-0.4-17.6-0.4h-18.9V912z M3880.6,1055.3c-74,0-134.3-60.2-134.3-134.3s60.2-134.3,134.3-134.3
		c74,0,134.3,60.2,134.3,134.3S3954.6,1055.3,3880.6,1055.3z M3880.6,807.4c-62.6,0-113.6,51-113.6,113.6
		c0,62.6,51,113.6,113.6,113.6c62.6,0,113.6-51,113.6-113.6C3994.2,858.4,3943.2,807.4,3880.6,807.4z"/>
</g>
<g>
	<path class="st7" d="M3716.4,983.5v-95.7h-34v-19.6h91.4v19.6h-34v95.7H3716.4z"/>
	<path class="st7" d="M3788.3,983.5V868.3h34.9l20.8,78.7l20.8-78.7h34.9v115.2H3878v-90.6l-23,90.6h-22.5l-23-90.6v90.6H3788.3z"/>
	<path d="M1006.9,2276.8c-87.2,0-170.9-36.1-251.7-70.6c-79.1-34-160.7-69.3-242.8-69.3c-52.7,0-103.3,14.5-154.4,44.2
		c-17,9.8-33.6,17.4-48.5,24.2c-11.9,5.5-23.4,10.6-32.7,16.2c-28.1,19.1-60.8,30.6-94.4,33.6l-3.8,0.4h-3.8
		c-50.6,0-96.5-28.9-118.2-74.4c-1.3-2.1-2.1-4.3-3-6c-5.1-7.7-9.4-16.2-12.3-25.1c0-0.4-0.4-0.4-0.4-0.8c-1.3-2.1-2.1-4.3-3.4-6.4
		c-11.9-18.3-18.7-39.1-20.4-61.2c-2.1-20-2.1-38.3-2.1-54c0-219.4,98.7-410.3,301.9-584.6c35.3-30.2,71.9-60.4,110.1-90.1
		c-54.4-11.1-101.2-34-137.8-67.2c-35.3-32.3-62.5-66.3-83.3-103.7c-1.3-2.5-3-5.1-4.3-7.7c-8.1-13.2-14.9-26.8-20.8-40
		c-39.5-70.2-54-149.2-45.1-248.7c13.6-148.4,87.6-272.1,210.5-355l-31.5-94.8c-8.9-9.4-16.2-20-20.8-31.9
		c-2.6-4.3-4.7-8.5-6.4-12.8c-0.9-1.3-1.3-2.6-1.7-3.8c-0.9-1.7-1.7-3.4-2.6-5.1c-1.7-3.4-3.4-6.8-5.1-10.2
		c-2.6-3.8-4.7-8.1-6.4-12.8c-7.7-14.9-11.9-31-12.3-47.2c-1.3-57.8,44.6-106.7,102.9-108.8h3h3c24.2,0.9,46.8,10.2,64.6,25.1
		c6.8-51,49.8-91,102.5-92.7h1.3h3h1.7c32.3,1.3,61.7,17,80.4,42.1c-3.8-11.1-6-22.5-6.4-34.4v-1.3c-0.4-27.6,9.8-54,28.9-74.4
		C664.6,46,691,34.1,719,33.3h1.3h3.4h1.7c40.4,1.7,76.1,25.9,92.7,62.5c0.4,0.4,0.4,0.9,0.8,1.3c3.4,5.5,6,11.1,8.5,17
		c0,0,0,0.4,0.4,0.4c1.3,2.1,2.1,4.3,3.4,6.8c1.3,2.1,2.1,4.3,3.4,6.4c0.4,0.4,0.4,1.3,0.8,1.7c3.4,5.5,6.4,11.1,8.5,17.4
		c0.8,1.7,1.7,3.4,2.1,5.1c15.7-10.2,34.4-16.6,54.4-17.4h1.7h4.3h2.1c39.5,2.1,74,25.9,90.6,61.2c4.3,6.4,7.7,13.6,10.2,20.8
		c0.8,1.7,1.7,3.4,2.5,5.1c16.2-11.5,36.1-18.7,57.4-19.6h3h3c40.4,1.7,75.7,25.5,92.3,61.2c0,0,0,0,0,0.4
		c4.3,6.4,7.7,13.2,10.2,20.8c1.3,2.1,2.1,4.3,3,6c0.8,1.7,1.7,3,2.5,4.7c0,0.4,0.4,0.4,0.4,0.9c4.3,6.8,7.7,14,10.6,21.7
		c6.4,14,9.4,28.9,9.4,43.8c0,31-13.6,59.5-35.3,79.5l-30.2,91.4c36.6,11.9,58.7,13.6,74.8,13.6c8.5,0,16.6-0.4,25.5-1.3h1.7
		c17-1.3,46.4-16.2,67.6-27.2c10.2-5.1,19.6-10.2,28.9-14.5c37.8-17,74.4-25.9,109.3-25.9c58.3,0,110.1,23.8,145.9,67.6
		c12.8,14.5,23.4,30.6,31.5,48.5c4.7,8.1,8.9,16.6,12.8,25.1c2.5,4.7,4.7,9.8,6.8,14.5c28.1,57,28.1,126.7,0.4,182.8l-0.4,1.3
		l-0.4,1.3c-11.1,21.3-23,42.1-35.3,62.5c20.4-7.2,41.7-11.1,63.8-11.1h108c18.3,0,36.1,4.3,52.3,11.9c28.1,13.6,49.3,37,60,65.9
		c1.3,3,3,5.5,4.3,8.5c5.1,7.6,8.9,15.3,11.9,23.8c1.3,2.6,3,5.5,3.8,8.5c16.6,33.2,17,72.3,0.4,105.9
		c-23.4,48.9-44.7,98.6-63.4,149.7c3-4.3,5.5-8.5,8.5-12.8c29.3-46.3,57.4-93.1,83.8-139.5c20.8-42.9,40.4-79.9,55.7-109.7
		c3.4-6.4,9.8-18.7,9.8-18.7c30.6-57.8,90.6-93.5,156.1-93.5h107.6c15.7,0.4,31,3.4,45.5,9.8c28.5,12.3,51,34.9,63.4,63.4
		c0.4,0.8,1.3,2.1,1.7,3.4c45.5-116.1,87.2-207,111-256.4v-0.4c31-63.3,96.5-104.6,167.1-104.6h68.9c17.9,0,35.3,3.4,51.9,9.8
		c34.4,13.2,62.5,40,78.2,73.1c3,5.1,5.5,10.2,8.1,15.7c0,0,0,0.4,0.4,0.4c2.1,4.3,4.3,8.1,6.4,12.3c0.4,1.3,1.3,2.1,1.7,3.4
		c3.4,5.5,6.4,11.9,8.9,18.3c17,35.7,18.7,77,4.7,113.5v0.4C2869.4,878,2849,935,2826,1001.3l-8.5,23.8c-4.7,13.2-9.4,26.4-13.6,40
		c29.3-36.6,62.5-69.7,99.1-99.1c77-62.5,173.9-96.5,273-96.5c3.4,0,6.8,0,9.8,0c50.2,0,93.1,7.7,129.7,22.5
		c20-14.5,44.2-22.5,69.7-23h140.3c16.6,0,32.3,3.4,47.2,9.8c28.9,12.3,51.5,34.9,63.8,63.3c1.7,3,3.4,6.4,5.1,9.8
		c1.3,2.1,2.1,4.3,3.4,6.8c1.3,2.1,2.1,4.3,3.4,6.8c1.7,3,3.4,6.4,4.7,9.8c1.7,3,3.4,6,4.7,9.4c17.4,32.3,19.6,71,5.1,105.4
		c-30.2,72.3-56.6,146.7-78.2,222.4c12.8-3.4,25.5-5.1,39.1-5.1c10.6,0,21.3,1.3,31.5,3.4l1.7,0.4l1.7,0.4
		c38.7,9.8,68.5,34.9,83.3,70.1c0,0,0,0,0,0.4c1.7,3.4,3.4,6.4,5.1,9.8c1.3,2.1,2.1,4.3,3.4,6.4c1.3,2.1,2.6,4.7,3.4,6.8
		c1.7,3,3,6,4.3,8.9c0,0,0,0.4,0.4,0.4c2.1,3.4,3.8,6.8,5.1,10.2c62.1,116.5-91.9,276.3-98.7,283.2c-88.9,91.4-202,143.7-310,144.6
		h-0.4c-94.4,0-153.5-31.9-190.5-70.1c-64.6,46.3-133.5,70.1-202.8,70.1c-105,0-168-42.9-205.4-88c-76.1,56.5-162.4,88-245.4,88
		c-95.7,0-151.4-38.3-183.3-77c-72.3,49.7-152.7,77-229.6,77c-116.1,0-178.2-48.5-210.9-93.1c-82.5,62.1-168,93.1-255.6,93.1
		c-68.9,0-125.4-14-169.2-41.2c-8.9,49.7-25.5,115.6-54.8,181.1c-76.1,170.5-204.5,268.7-370.8,284.4
		C1026.9,2276.4,1017.1,2276.8,1006.9,2276.8z M898.5,1581.7c36.1,17.9,73.6,41.7,119.1,71.4c12.8,8.1,24.2,12.3,34.4,12.3
		c35.3,0,79.1-48.5,105.5-94c10.2-17.9,23-34.4,38.3-48c27.2-26.8,64.2-42.5,102.5-42.5c8.1,0,16.2,0.9,24.2,2.1
		c3.8-59.9,20.8-125.4,36.1-174.7c21.3-68,46.3-134.8,75.3-200.2c-13.6,14-27.2,28.1-41.7,41.7c-117.4,112.2-234.3,216-358.5,317.2
		C986.9,1505.2,941.8,1543.4,898.5,1581.7z M784.1,1077.4c2.1,3.4,3.8,6.4,5.5,9.8c36.1-28.1,71.9-56.5,106.7-86.3
		c-1.7-0.4-5.5-1.7-5.5-1.7c-42.5-14-86.7-22.5-131.8-25.1c-0.4,0-0.9,0-1.3,0c-5.1,0-9.8,0-14.9,0.4c-14,6.8-19.6,22.5-21.3,34
		c12.3,6,23.8,14.5,33.6,24.7C767.9,1046,777.7,1060.9,784.1,1077.4z"/>
	<path class="st8" d="M1386.2,1730.1c0,19.6-31.9,429.8-358,460.4c-203.3,19.1-422.7-252.5-712.7-82.9
		c-27.2,15.7-57.4,25.9-84.2,42.1c-16.6,11.9-36.1,18.7-56.6,20.8c-19.1,0-35.7-11.5-42.5-28.5c-1.7-2.5-3-5.5-4.3-8.9
		c-3.4-4.3-6.4-9.4-8.1-14.9c-0.4-1.3-0.9-2.5-1.7-3.8c-0.9-1.7-1.7-3.4-2.6-5.1c-1.7-2.5-3-5.5-4.3-8.9c-6-7.2-9.8-16.2-10.2-26.4
		c-1.7-16.2-1.7-31.9-1.7-46.8c0-196,90.6-364.4,272.1-520c89.3-76.1,187.9-152.2,294.7-226.6c133.9-90.1,261.1-190,380.1-298.9
		c4.3-3.8,7.7-8.9,9.8-14v-0.4c-46.8-17-93.6-34-139.5-48.5c-50.2-16.6-102.5-26.4-155.6-29.3c-12.3,0-24.7,0.4-36.6,2.1
		c-1.3,0-3,0.4-4.3,0.8c-58.7,19.1-85.5,75.3-85.5,129.7c-0.8,10.6,0,21.7,2.1,31.9c1.3,1.3,2.1,3,3.4,4.3c2.1,2.5,4.3,5.1,6.4,7.7
		c8.9,8.1,20,14.5,31.9,17.9c1.7,0.4,3,1.3,4.7,1.7c4.3,2.1,8.1,5.1,11.1,8.9c6.4,5.1,10.6,12.3,11.9,20.4c0.9,0.9,1.3,2.1,2.1,3.4
		c3.4,3.8,6,8.9,7.2,14c3.4,4.3,6,9.8,6.8,15.3c6.4,9.4,8.1,21.7,3,32.7c-23.4,45.1-74.8,72.7-129.7,86.7
		c-35.7,8.1-169.7,29.3-249.6-43.8c-29.3-26.8-51-54-66.8-82.9c-1.7-2.6-3-5.5-4.3-8.1c-7.2-11.9-13.2-23.8-18.7-36.1
		c-35.3-59.9-43.4-125.4-36.6-202.8c14.5-157.7,108.4-266.1,233.9-326.9l-0.4-0.9c-0.4,0-0.9,0.4-0.9,0.4l-2.1-6.8
		c-0.4,0-0.9,0.4-0.9,0.4l-2.1-6.8c-0.4,0-0.9,0.4-0.9,0.4l-2.1-6.8h-0.4l-2.6-7.2c-0.4,0.4-0.9,0.4-1.7,0.4l-2.1-6.8
		c-0.4,0-0.9,0.4-0.9,0.4l-49.3-150.9c-8.5-2.1-14.9-8.9-16.2-17.9c0,0,0,0,0-0.4c-3-2.6-4.7-6-6-9.8c-1.7-2.1-2.6-3.8-3.4-6.4
		c-1.3-1.7-2.6-3.8-3-6c-2.1-3-3.4-6.4-4.3-9.8c0,0,0,0,0-0.4c-3-2.6-4.7-6-6-9.8c-2.6-3.4-4.3-7.7-4.3-12.3
		c-0.4-11.9,8.9-22.1,20.8-22.5c9.4,0.4,17,6.8,19.6,15.7c0.9,1.3,1.7,2.6,2.6,3.8c3,3,5.1,7.2,5.5,11.9c0.4,1.3,0.9,2.1,1.3,3.4
		c1.7,2.1,2.6,4.3,3.4,6.8c1.3,2.1,2.6,3.8,3.4,6.4c0.9,1.3,1.7,2.6,2.6,3.8c3,3,5.1,7.2,5.5,11.9c1.7,3,2.6,6.4,2.6,10.2
		c0,4.7-1.3,8.9-3.4,12.3c20.4,20.8,45.1,39.5,69.3,39.5c5.1,0,9.8-1.3,14-3.8c3-2.1,5.5-4.3,8.1-6.8c5.5-6,10.2-13.2,13.6-20.4
		c6.4-13.6,11.1-27.6,14.5-42.1c3.8-14.9,6.8-30.2,8.9-43.8c0.4-2.6,0.9-5.1,1.3-7.7c0-0.4,0-0.9,0-0.9c-1.3-1.7-2.5-3.8-3-6
		c-1.7-2.1-3-4.7-3.4-7.7c-1.7-2.6-3-5.5-3.4-8.9c-0.4-0.4-0.4-0.9-0.9-1.3c-2.5-2.6-4.3-5.5-5.1-8.9c-2.6-3.8-4.3-8.1-4.3-12.8
		c-0.4-11.9,8.9-21.7,20.8-22.1c9.4,0.4,17,6.8,19.6,15.7c0.8,1.3,1.7,2.6,2.5,3.8c3,3,5.1,7.2,5.5,11.9c0.4,1.3,0.8,2.1,1.3,3.4
		c1.3,2.1,2.5,4.3,3.4,6.4c1.7,2.1,2.6,4.3,3.4,6.8c0.9,1.3,1.7,2.6,2.6,3.8c3,3,5.1,7.2,5.5,11.9c1.7,3,2.5,6.4,2.5,10.2
		c0,8.9-5.1,17-13.6,20.4c3.4,8.1,6.8,16.6,9.4,25.1c11.5,15.3,25.1,24.2,40,17c10.2-5.5,19.1-13.6,25.9-23.4l4.7-6.8
		c5.5-8.5,10.6-17.4,15.3-26.4c3.8-7.7,8.5-17.9,11.1-23.8s5.1-12.3,7.7-18.7c2.5-6.4,4.7-12.8,6.8-19.1c1.3-3.4,2.1-6.4,3.4-9.4
		l6-18.3c4.7-14.9,8.5-28.5,11.5-40c-1.3-2.1-2.1-4.7-2.5-7.2c0-0.4-0.4-0.4-0.4-0.9c-2.5-2.6-4.7-5.5-5.5-8.9
		c-2.6-3.8-4.3-8.5-4.3-13.2c-0.4-11.9,8.9-21.7,20.8-22.1h0.4c9.4,0.4,17,6.8,19.6,15.3c1.3,1.7,2.1,3.4,3,5.5
		c2.1,2.6,3.4,5.5,4.3,8.5c0.8,1.7,2.1,3.4,2.5,5.1c1.3,2.1,2.5,4.3,3.4,6.4c1.7,2.1,2.5,4.3,3.4,6.8c1.3,1.7,2.1,3.4,3,5.5
		c2.1,2.6,3.4,5.5,4.3,8.5c2.1,3.4,3.8,7.7,3.4,11.9c0.4,10.2-6.4,19.1-16.2,21.7c2.1,8.5,5.1,18.7,8.5,30.6c6,20.4,14,44.6,23,68.5
		c1.3,3,2.6,6,3.8,8.9c10.2,16.2,21.3,28.5,33.2,34c25.5,12.3,47.6-23.4,62.1-55.7c3-10.6,6.8-20.8,11.1-30.6
		c-0.4-1.3-0.9-2.1-1.3-3.4c-0.9-1.3-1.3-2.6-1.7-3.8c-2.1-2.1-3.4-4.7-4.3-7.7c-2.6-3.8-4.3-8.1-4.3-13.2
		c-0.4-11.9,8.9-21.7,20.8-22.5c9.4,0.4,17,6.8,19.6,15.7c1.3,1.7,2.1,3,3,4.7c2.1,2.6,3.4,6,4.3,9.4c0.8,1.7,1.7,3.4,2.5,5.1
		c1.3,2.1,2.6,4.3,3.4,6.4c1.7,2.1,2.5,4.3,3.4,6.8c1.3,1.7,2.1,3,3,4.7c2.1,2.6,3.4,6,4.3,9.4c2.1,3.4,3.8,7.2,3.4,11.9v0.4
		c0.4,11.9-8.9,21.7-20.8,21.7H927c1.7,18.7,6.4,54.8,15.7,86.7c6,6,13.2,9.8,20.8,9.8c14.5-0.9,28.5-6,40-14.5
		c19.1-13.6,36.1-30.2,50.2-48.5l6-7.7c0.8-1.3,1.7-2.6,2.5-3.4c-0.4-1.3-0.9-2.1-0.9-3.4c-0.8-1.3-1.3-2.1-1.7-3.4
		c-2.1-2.1-3.4-4.7-4.3-7.7c-3-3.8-4.3-8.5-4.3-13.6c-0.4-11.9,8.9-22.1,20.8-22.5c9.8,0.4,17,6.8,19.6,15.7c1.3,1.7,2.1,3,3,5.1
		c2.1,2.6,3.4,6,4.3,9.4c0.8,1.7,1.7,3.4,2.5,5.1c1.3,2.1,2.5,4.3,3.4,6.4c1.3,2.1,2.5,4.3,3.4,6.4c1.3,1.7,2.1,3,3,5.1
		c2.1,2.6,3.4,6,4.3,9.4c2.1,3.4,3.8,7.2,3.4,11.9c0.4,11.9-8.9,21.7-20.8,22.1l-65.1,198.5c121.6,54.8,171.4,50.6,213.9,47.6
		c45.5-3,93.1-34,126.3-49.3c74-33.6,126.3-16.2,154.8,20c8.9,9.8,15.7,20.8,20.8,32.7c4.3,6.8,8.1,13.6,11.1,21.3
		c2.5,4.3,4.7,8.9,6.4,13.6c17.4,33.6,18.7,76.5,1.7,110.1c-61.2,115.2-140.3,220.2-234.3,310.8
		c-111.8,106.7-228.3,210.5-353.4,312.5c-89.3,72.7-166.7,140.7-234.7,204.1c-8.1,7.6-15.7,15.3-23.8,23c94-2.1,137.8,23,249.6,95.7
		c133.9,87.2,235.6-67.6,260.7-111c6-10.6,13.6-20.4,23-28.5c15.7-16.6,39.1-23,61.2-16.2c18.7,7.2,26.4,16.6,34.9,34.9
		c1.7,3.4,3.4,6.8,5.5,11.1c1.3,2.6,3,5.5,4.3,8.5c1.3,2.1,2.1,4.3,3.4,6.4c1.3,2.1,2.1,4.3,3.4,6.4c1.7,3.4,3.4,6.8,5.5,11.1
		c3,5.1,6,11.5,8.9,18.7C1386.6,1686.3,1388.3,1708.4,1386.2,1730.1z M3354.5,1766.2c-80.8,0-128-29.3-151.8-77
		c-1.3-2.6-2.5-4.7-4.7-6.8c-11.5-13.2-31-14.5-44.2-3c-55.7,51.4-121.2,86.3-192.6,86.3c-71.4,0-123.3-25.9-153.9-77.8
		c-4.3-7.2-8.1-14.9-11.9-22.5c-3.4-6.4-6.8-12.8-9.4-19.1c-2.5-4.3-4.7-8.5-6.8-13.2c-0.8-1.7-1.7-3.4-3-5.1
		c-5.5,6-11.5,12.8-17.9,19.1c-64.6,66.3-155.6,118.2-247.9,118.2c-60,0-102-19.6-126.3-58.2c-5.1-8.1-9.8-16.6-13.6-25.1
		c-3-5.5-6-11.5-8.5-17.4c-0.4-0.9-0.8-1.7-1.3-2.6c-2.1-4.3-4.3-8.5-6.4-12.8c-1.3-2.5-3-5.1-4.3-7.7l-4.7,5.1
		c-64.6,66.3-153.9,118.2-247.9,118.2c-83.8,0-133.1-31-156.1-81.6c-3.4-5.5-6-11.5-8.5-17.9c0,0,0-0.4-0.4-0.4
		c-2.5-4.7-5.1-9.4-7.2-14.5c-0.4-0.4-0.4-0.8-0.8-1.3c-12.3-10.6-31-11.1-43.4,0.4c-75.7,70.2-160.3,115.2-250.5,115.2
		c-74.4,0-126.3-19.6-155.6-56.5c-9.8-12.3-17.4-25.5-24.2-39.5c-3.4-6.4-6.8-12.8-9.8-19.6c-2.1-4.3-4.3-8.5-6.4-12.8
		c-6.8-12.3-12.3-25.5-16.6-38.7c-8.5-24.2-12.8-49.7-11.9-75.7c0-4.7-8.1-59.9,32.3-189.6c34.9-112.2,81.2-220.7,137.8-324
		c19.1-34,54.9-55.3,94-55.3h108c5.1,0,10.6,1.3,15.3,3.4c10.2,4.7,16.6,14,18.7,23.8v0.4c2.1,3,3.4,6,4.7,8.9
		c0.9,1.3,1.3,2.5,2.1,4.3c1.3,1.7,2.1,3.4,3,5.1c3.4,4.3,5.5,8.9,6.4,14v0.4c2.1,3,3.4,6,4.7,8.9c6,9.8,6.8,22.1,1.3,33.2
		c-40.8,85.5-74.8,173.5-102.1,264c-11.9,36.1-18.3,74-19.6,111.8c0,3.4,0.4,8.5,1.3,15.7c7.7,2.5,16.6,3.8,27.6,3.8
		c53.6,0,121.6-76.1,186.2-175.2c30.6-48,59.5-96.5,86.7-144.6l1.3-2.6c24.7-51,47.2-93.1,64.6-126.7c16.2-29.8,47.2-48.5,81.2-48.5
		h106.7c4.7,0,9.4,1.3,13.6,3c9.8,4.3,17,12.8,20,22.1c0.4,0.8,1.3,2.1,1.7,3c2.1,3,3.4,6,4.7,9.4c0.8,1.3,1.7,2.6,2.1,3.8
		c1.7,2.1,3,4.7,3.8,7.6c1.7,2.6,3,5.5,3.8,8.5c0.4,0.8,1.3,2.1,1.7,3c2.1,3,3.4,5.9,4.7,9.4c5.5,9.4,6.8,21.3,2.1,32.3
		c-36.1,85.9-66.3,174.3-90.6,264c-9.8,36.6-15.3,74-16.2,111.8c0,4.3,0.4,9.8,1.3,17c5.5,1.7,12.3,2.6,20,2.6
		c44.6,0,77-37.8,90.1-60.4c0.4-0.8,0.9-1.3,1.3-2.1l2.5-5.5c4.3-23.4,9.8-50.2,17.9-81.2c18.3-75.3,41.2-149.2,68-221.9
		c53.6-149.2,110.1-277.2,147.6-354.6c17-34.9,51.9-56.5,90.6-56.5h68.9c7.2,0,14.5,1.3,21.3,3.8c16.2,6.4,27.6,18.7,33.2,33.6
		c3,3.8,5.1,8.5,6.8,13.2c0.8,1.3,1.7,2.6,2.1,3.8c1.7,2.5,3,5.5,4.3,8.5c1.3,2.1,2.6,4.7,3.4,7.2c3,3.8,5.1,8.5,6.8,13.2
		c7.7,14.5,9.4,31.9,3,48c-21.3,53.6-43.8,118.2-71.4,196c-27.6,77.8-50.2,155.6-69.7,231.7c-15.3,51-25.9,103.7-32.3,156.5
		c0,1.7,0,3,0,4.7c0,26.4-1.7,39.5-1.7,42.9c0,5.1,0.4,10.2,0.9,14.9c6,3,12.8,4.7,20.4,4.7c44.2,0,76.1-36.6,89.7-59.5l1.7-3.4
		c3.4-41.7,22.5-96.9,57.8-167.1c36.1-73.6,88.4-138.2,152.2-189.6c64.6-52.3,145.4-79.9,228.3-77.8c56.6,0,96.1,11.1,124.6,29.8
		c0.4,0.4,0.8,0.4,1.3,0.9c15.7,8.9,35.3,3,44.2-12.3c6.4-11.5,17.9-18.3,31-18.3h139.9c4.7,0,9.8,0.8,14,3
		c10.2,4.3,17,12.8,20,22.1c0.4,1.3,1.3,2.1,1.7,3.4c1.7,2.5,3,5.1,4.3,7.7c1.3,2.1,2.5,4.3,3.4,6.4c1.3,2.1,2.6,4.3,3.4,6.4
		c1.7,2.5,3,5.5,3.8,8.5c0.4,1.3,1.3,2.1,1.7,3.4c1.7,2.5,3,5.1,4.3,7.7c6.4,9.8,7.7,22.1,3,33.6c-36.1,85.9-66.3,174.3-90.6,264
		c-9.8,36.6-15.3,74-16.2,111.8c0,4.3,0.4,9.8,1.3,17c5.5,1.7,12.3,2.5,20,2.5c27.6-0.8,53.6-13.6,71-34.4
		c16.6-20,42.5-28.9,68-23.8c14.9,3.8,23,12.3,26.8,23.8c0.9,1.7,1.7,3,2.5,4.7c1.3,2.1,3,4.7,3.8,7.2c1.3,2.1,2.5,4.3,3.4,6.4
		c1.3,2.1,2.5,4.3,3.4,6.4c1.3,2.1,2.6,4.7,3.4,7.7c0.9,1.7,1.7,3,2.5,4.7c1.3,2.1,3,4.7,3.8,7.2c24.7,39.5-31.5,133.1-82.9,186.2
		C3539.1,1713.9,3448.5,1765.8,3354.5,1766.2z M3033.5,1449c4.3,1.3,8.9,2.1,14.5,2.1c43.8,0,95.7-63.4,116.5-100.3l24.2-43.8
		c22.1-40.8,40-83.8,53.6-128c3.8-13.2,6-26.4,7.2-40c-2.5-0.4-5.5-0.8-8.9-0.8c-34,0-66.3,17.9-97.4,55.3
		c-31.5,38.3-57.8,80.8-77.8,126.3c-18.7,39.5-29.8,82.5-32.3,126.3v3H3033.5z"/>
	<path class="st9" d="M1355.2,1613.1c-11.1-25.5-17.9-36.6-39.5-45.1c-21.7-6.8-45.5-0.4-61.2,16.2c-9.4,8.1-17,17.9-23,28.5
		c-25.1,43.4-126.7,198.1-260.7,111c-115.7-75.7-158.6-99.5-259.4-95.7c-13.2,4.7-28.1-2.6-32.3-15.7c-3.4-9.4-0.4-20,6.8-27.2
		c10.6-10.2,21.7-20.4,32.3-31.5c68-63.3,145.8-131.4,234.7-204.1c124.6-102,241.5-205.8,353.4-312.5
		c94-90.6,173.1-195.6,234.3-310.8c40-80.4-21.7-213.4-168-147.1c-33.2,15.3-81.2,46.3-126.3,49.3c-45.5,3-99.1,7.7-240.7-59.9
		c-14.9-7.2-29.8-13.6-44.6-19.1c-291.3-113.1-708.4-4.3-740.7,343.5c-10.2,111.8,11.5,199,99.5,278.9
		c79.9,73.1,213.9,51.9,249.6,43.8c54.4-14,106.3-42.1,129.7-86.7c7.7-16.2,0.9-35.3-15.3-43.4c-1.3-0.8-3-1.3-4.7-1.7
		c-17.4-4.7-32.7-15.3-42.9-30.2c-20-22.5-29.8-52.3-27.6-82.5c0-54.4,26.8-110.5,85.5-129.7c1.3-0.4,3-0.8,4.3-0.8
		c12.3-1.7,24.2-3,36.6-3c52.7,3,105,12.8,155.6,29.3c47.6,14.9,96.1,32.3,144.6,50.2c20,8.1,29.8,30.6,21.7,50.6
		c-2.1,5.5-5.5,10.2-9.8,14c-119.1,108.8-246.2,208.8-380.1,298.9c-106.7,74.4-205.8,150.5-294.7,226.6
		c-181.6,155.6-272.1,324.4-272.1,520.4c0,14.9,0,30.6,1.7,46.8c1.3,24.7,21.7,43.8,46.3,43.8c20.4-1.7,39.5-8.9,56.6-20.8
		c26.8-16.2,57-25.9,84.2-42.1c290-169.6,509.4,102.5,712.7,82.9c326.1-30.6,358-441.3,358-460.4
		C1362,1656.5,1360.3,1634.4,1355.2,1613.1z M3577.8,1595.7c61.7-63.3,129.7-184.5,59.5-202.4c-25.1-5.1-51.5,3.8-68,23.8
		c-17.9,21.3-43.8,33.6-71,34.4c-27.6,0-42.1-9.8-43.8-30.6c-1.7-21.3-3.4-32.3-3.4-40.4c0.8-37.8,6.4-75.3,16.2-111.8
		c24.2-90.1,54.4-178.1,90.6-264c7.7-18.3-0.8-39.5-19.1-47.2c-4.7-1.7-9.4-3-14-3h-139.9c-12.8,0-24.7,7.2-31,18.3
		c-8.9,15.7-28.5,21.3-44.2,12.3c-0.4,0-0.8-0.4-1.3-0.8c-28.5-19.1-68-29.8-124.6-29.8c-82.9-2.1-164.1,25.5-228.3,77.8
		c-64.2,51.4-116.1,116.1-152.2,189.6c-35.3,70.2-54,125.8-57.8,167.1l-1.7,3.4c-13.6,23-45.5,59.5-89.7,59.5
		c-30.6,0-46.8-24.2-46.8-71.4c0-3,1.3-16.2,1.7-42.9c0-1.7,0-3,0-4.7c6.4-53.1,17-105.4,32.3-156.5
		c19.6-76.1,42.1-153.9,69.7-231.7c27.6-77.8,50.2-142.4,71.4-196c11.5-30.2-3.4-63.8-33.2-75.3c-6.8-2.5-14-3.8-21.3-3.8h-68.9
		c-38.7,0-73.6,22.1-90.6,56.5c-37.4,77.8-94,205.8-147.5,354.6c-26.8,72.7-49.8,146.7-68,221.9c-7.7,30.6-13.6,57.4-17.9,81.2
		l-2.5,5.5c-0.4,0.8-0.9,1.7-1.3,2.1c-13.2,22.5-45.5,60.4-90.1,60.4c-27.6,0-42.1-9.8-43.8-30.6c-1.7-21.3-3.4-32.3-3.4-40.4
		c0.9-37.8,6.4-75.3,16.2-111.8c24.2-90.1,54.4-178.1,90.6-264c8.1-18.3-0.4-39.5-19.1-47.6c-4.3-1.7-8.9-3-13.6-3h-105.9
		c-34,0-65.1,18.7-81.2,48.5c-17.9,33.6-40,75.7-64.6,126.7l-1.3,2.5c-27.2,48.5-56.1,96.5-86.7,144.6
		c-64.6,98.6-132.7,175.2-186.2,175.2c-30.6,0-48.5-9.8-50.2-30.6c-1.7-21.3-3.4-34-3.4-40.4c1.3-37.8,7.7-75.7,19.6-111.8
		c27.2-90.6,61.2-179,102-264c8.5-17.4,1.3-38.3-16.2-46.8c-4.7-2.1-9.8-3.4-15.3-3.4h-108c-39.1,0-74.8,21.3-94,55.3
		c-56.6,103.3-102.5,211.7-137.8,324c-40.4,129.7-32.3,184.5-32.3,189.6c-1.7,48.5,13.6,96.1,43.8,134.4
		c29.3,37.4,81.2,56.5,155.6,56.5c90.6,0,175.2-45.1,250.5-115.2c13.2-11.9,33.6-11.1,45.9,2.1c3.4,3.4,5.5,7.7,7.2,12.3
		c18.7,62.1,68.9,100.8,163.3,100.8c94,0,183.3-51.9,247.9-118.2l10.2-11.1c4.7,25.1,14.5,49.3,28.9,71
		c24.2,38.7,66.3,58.2,126.3,58.2c92.3,0,183.3-51.9,247.9-118.2c7.7-7.6,14.9-16.2,21.3-23c6.4,22.5,15.3,43.8,27.2,63.8
		c30.6,51.9,82.5,77.8,153.9,77.8s136.9-35.3,192.6-86.3c13.2-11.5,32.7-10.2,44.2,3c1.7,2.1,3.4,4.3,4.7,6.8
		c23.8,47.6,71.4,77,151.8,77C3422.6,1713.9,3513.1,1662,3577.8,1595.7z M3250.8,1130.6c-0.9,16.6-3.4,32.7-8.1,48.5
		c-13.6,44.2-31.5,87.2-53.6,128l-24.2,43.8c-21.3,37.4-72.7,100.3-116.5,100.3c-27.6,0-40.4-17.9-40.4-51.9v-4.7
		c2.5-43.8,13.6-86.7,32.3-126.3c20-45.5,46.4-88,77.8-126.3c30.6-37.4,63.4-55.3,97.4-55.3
		C3253.8,1086.8,3250.8,1117.8,3250.8,1130.6z M366.1,331.3c1.7,0,3,0,4.7,0l66.3,201.5c25.9-11.1,51.9-20.8,79.1-29.3
		c28.9-8.9,58.3-16.2,88.4-21.3c37.4-6.8,75.3-10.2,113.5-10.2c50.2,0,99.9,5.1,148.4,16.2c47.6,11.1,94.4,27.2,138.6,47.6
		l67.6-204.5c11.9-0.4,21.3-10.2,20.8-22.1c0.4-11.9-8.9-22.1-20.8-22.5c-11.9,0.4-21.3,10.6-20.8,22.5
		c-0.4,10.2,6.4,19.1,16.2,21.7c-2.1,3-4.7,6.4-7.2,10.2l-6,7.7c-14.5,18.7-31.5,34.9-50.2,48.5c-11.5,8.5-25.5,13.6-40,14.5
		c-44.2,0-58.7-111-62.5-148.4h2.1c11.9,0,21.3-9.8,21.3-21.7c0.4-11.9-8.9-22.1-20.8-22.5c-11.9,0.4-21.3,10.6-20.8,22.5
		c0,9.4,5.5,17.9,14.5,21.3c-6,11.9-10.6,24.7-14,37.4c-14.5,32.3-36.6,68-62.1,55.7c-38.3-18.3-68.9-105.4-85.9-162.8
		c-3.4-11.9-6.4-22.1-8.5-30.6c9.8-2.6,16.6-11.9,16.2-21.7c0.4-11.9-8.9-21.7-20.4-22.1h-0.4c-11.9,0.4-21.3,10.2-20.8,22.1
		c-0.4,9.4,5.5,18.3,14.9,21.3c-3.4,12.3-8.1,29.8-14,48.5l-6,18.3c-0.8,3-2.1,6-3.4,9.4c-2.1,6.4-4.7,12.8-6.8,19.1
		c-2.5,6.4-5.1,12.8-7.7,18.7c-2.5,6-7.2,16.2-11.1,23.8c-4.7,8.9-9.8,17.9-15.3,26.4l-4.7,6.8c-6.8,9.8-15.7,17.9-25.9,23.4
		c-25.5,12.3-47.6-23-62.1-56.1c-3.4-12.8-8.1-25.5-14-37.4c8.5-3.4,14.5-11.5,14-20.8c0.4-11.9-8.9-22.1-20.8-22.5
		c-11.9,0.4-21.3,10.2-20.8,22.1c-0.4,11.9,8.9,21.7,20.4,22.1h0.4h2.1c0,5.1-1.3,11.5-2.1,19.1c0,4.3-1.3,8.5-1.7,12.8
		c-2.1,13.6-5.1,28.9-8.9,43.8c-3.4,14.5-8.1,28.5-14.5,42.1c-3.4,7.7-8.1,14.5-13.6,20.4c-2.6,2.6-5.1,4.7-8.1,6.8
		c-4.3,2.6-8.9,3.8-14,3.8c-26.8,0-54.9-23-76.1-46.3c-10.6-11.5-20-23.8-28.9-36.6c8.1-3.4,13.6-11.5,13.2-20.4
		c0.4-11.9-8.9-22.1-20.8-22.5c-11.9,0.4-21.3,10.6-20.8,22.5C344.4,321.5,354.2,331.3,366.1,331.3z"/>
	<path class="st10" d="M366.1,331.3c1.7,0,3,0,4.7,0l66.3,201.5c25.9-11.1,51.9-20.8,79.1-29.3c28.9-8.9,58.3-16.2,88.4-21.3
		c37.4-6.8,75.3-10.2,113.5-10.2c50.2,0,99.9,5.1,148.4,16.2c47.6,11.1,94.4,27.2,138.6,47.6l67.6-204.5
		c11.9-0.4,21.3-10.2,20.8-22.1c0.4-11.9-8.9-22.1-20.8-22.5c-11.9,0.4-21.3,10.6-20.8,22.5c-0.4,10.2,6.4,19.1,16.2,21.7
		c-2.1,3-4.7,6.4-7.2,10.2l-6,7.7c-14.5,18.7-31.5,34.9-50.2,48.5c-11.5,8.5-25.5,13.6-40,14.5c-44.2,0-58.7-111-62.5-148.4h2.1
		c11.9,0,21.3-9.8,21.3-21.7c0.4-11.9-8.9-22.1-20.8-22.5c-11.9,0.4-21.3,10.6-20.8,22.5c0,9.4,5.5,17.9,14.5,21.3
		c-6,11.9-10.6,24.7-14,37.4c-14.5,32.3-36.6,68-62.1,55.7c-38.3-18.3-68.9-105.4-85.9-162.8c-3.4-11.9-6.4-22.1-8.5-30.6
		c9.8-2.6,16.6-11.9,16.2-21.7c0.4-11.9-8.9-21.7-20.4-22.1h-0.4c-11.9,0.4-21.3,10.2-20.8,22.1c-0.4,9.4,5.5,18.3,14.9,21.3
		c-3.4,12.3-8.1,29.8-14,48.5l-6,18.3c-0.8,3-2.1,6-3.4,9.4c-2.1,6.4-4.7,12.8-6.8,19.1c-2.5,6.4-5.1,12.8-7.7,18.7
		c-2.5,6-7.2,16.2-11.1,23.8c-4.7,8.9-9.8,17.9-15.3,26.4l-4.7,6.8c-6.8,9.8-15.7,17.9-25.9,23.4c-25.5,12.3-47.6-23-62.1-56.1
		c-3.4-12.8-8.1-25.5-14-37.4c8.5-3.4,14.5-11.5,14-20.8c0.4-11.9-8.9-22.1-20.8-22.5c-11.9,0.4-21.3,10.2-20.8,22.1
		c-0.4,11.9,8.9,21.7,20.4,22.1h0.4h2.1c0,5.1-1.3,11.5-2.1,19.1c0,4.3-1.3,8.5-1.7,12.8c-2.1,13.6-5.1,28.9-8.9,43.8
		c-3.4,14.5-8.1,28.5-14.5,42.1c-3.4,7.7-8.1,14.5-13.6,20.4c-2.6,2.6-5.1,4.7-8.1,6.8c-4.3,2.6-8.9,3.8-14,3.8
		c-26.8,0-54.9-23-76.1-46.3c-10.6-11.5-20-23.8-28.9-36.6c8.1-3.4,13.6-11.5,13.2-20.4c0.4-11.9-8.9-22.1-20.8-22.5
		c-11.9,0.4-21.3,10.6-20.8,22.5C344.4,321.5,354.2,331.3,366.1,331.3z"/>
	<path class="st1" d="M982.2,2108c-63.4,0-132.2-29.8-205.8-61.2c-85.9-37-183.3-78.6-289.6-78.6c-75.3,0.4-149.3,21.3-213.5,60.4
		c-12.3,6.8-25.1,13.2-37.8,18.7c-16.2,6.8-31.5,14.9-46.8,23.4c-11.5,8.5-25.1,14-39.5,16.2c-7.7,0-14-6-14.5-13.6
		c-1.3-18.7-1.7-32.3-1.7-45.1c0-182.8,85.5-344.8,260.7-495.3c88.9-76.1,187.1-151.8,291.7-224.9c135.2-91,263.6-192.2,384-301.9
		c18.7-16.6,26.8-42.1,22.1-66.7c-4.7-24.2-21.7-44.6-45.1-53.1c-48.5-17.9-97.4-35.3-145.9-50.6c-53.6-17.9-109.3-28.1-165.4-30.6
		c-13.6,0-27.6,1.3-41.2,3.4c-3,0.4-6.4,1.3-9.4,2.1c-65.5,20.8-108,82.9-108.4,158.6c-2.1,37.8,10.2,74.8,34.4,103.7
		c14.5,20.4,35.7,34.9,60,41.2c-22.1,41.7-77.8,61.2-108.9,69.3c-25.5,5.5-51.9,8.1-78.2,8.1c-42.5,0-101.2-7.7-141.6-44.6
		c-73.6-66.7-99.1-139.9-88.9-252.1c22.5-246.2,253.4-356.3,472-356.3c76.5-0.4,153.1,13.6,224.5,40.4c14.5,5.5,28.5,11.5,42.1,18.3
		c119.9,57.4,182,64.6,222.4,64.6c12.3,0,23.4-0.8,32.3-1.3h1.7c40-5.5,78.7-18.7,113.5-39.5c8.9-4.7,17-8.9,24.7-12.3
		c18.7-9.4,39.5-14.5,60.4-14.9c24.7-0.8,47.6,11.5,60.8,32.3c15.7,25.9,17.4,58.2,4.3,85.5c-59.5,111.8-136.1,213.4-226.6,301.4
		c-114.8,110.1-229.6,211.7-351.2,311.2c-84.6,69.3-164.1,138.6-236.4,205.8c-11.5,10.6-23,21.3-33.6,32.3
		c-17.4,16.2-22.5,41.7-13.6,63.4c8.5,22.1,29.8,36.6,53.6,36.6c4.7,0,8.9-0.4,13.2-1.3h15.3c77.8,0,117.4,23.4,220.7,90.6
		c28.9,20,63.4,31,98.7,31.5c107.6,0,181.1-107.6,207.5-153.5c4.3-7.7,9.8-14,16.2-20c6-6,14-9.8,22.5-11.1c2.1,0,3.8,0.4,6,0.9
		c9.4,3.8,11.9,4.7,21.7,27.6c3.4,17.4,4.7,34.9,3.8,52.7c0,3.8-25.5,399.6-328.7,428.1c-6,0.4-11.9,0.4-17.9,0L982.2,2108z
		 M3329.9,1681.2c-62.5,0-102.9-19.1-122.9-59.1c-10.6-22.1-33.2-36.1-57.8-36.1c-15.7,0-31,5.5-42.5,16.2
		c-56.6,52.3-112.3,77.8-170.5,77.8c-57.8,0-101.6-20.4-125.9-62.1c-10.6-17.4-18.7-36.6-24.2-56.1l-16.2-57.8l-39.1,45.5
		c-6,7.2-12.8,14.5-19.6,21.7c-66.3,68-150.5,108.4-224.5,108.4c-48.5,0-81.2-14-99.1-42.9c-11.9-18.3-20.4-38.7-24.7-60.4
		l-13.2-61.7l-46.3,50.6c-1.7,2.1-3.4,4.3-5.5,6.4c-66.3,68-150.5,108.4-224.5,108.4c-74.4,0-116.5-25.5-132.2-77.8
		c-8.5-27.2-33.6-45.9-62.1-45.9c-16.2,0-31.9,6.4-44.2,17.4c-75.7,70.6-152.7,106.3-228.3,106.3c-63.4,0-107.2-14.9-129.7-44.2
		c-25.5-32.7-38.3-73.1-36.6-114.4c0-0.8,0-2.1,0-4.3c-1.7-23,0-76.5,31-175.6c34.4-110.1,79.5-216.8,135.2-318
		c13.2-23.4,37.8-38.3,64.6-38.3h108c0.9,0,1.7,0.4,2.1,1.3c0.4,0.8,0.4,1.7,0,2.5c-41.7,87.2-76.5,177.3-104.2,269.5
		c-12.3,39.1-19.6,79.5-20.4,120.3c0,6,0,14,1.7,25.9l1.7,17c0.8,14,10.2,60.4,82.5,60.4c60,0,129.7-62.1,213.5-189.6
		c31-48.5,60.4-97.4,88-145.8l2.5-4.7c20-42.9,38.7-78.2,55.3-109.7l8.1-16.2c10.2-19.1,30.6-31.5,52.3-31.5h106.3
		c1.3,0,2.5,0.4,3.4,1.7c0.4,1.3,0.4,2.5,0,3.8l-3,7.2c-35.7,85-65.5,172.6-89.3,261.9c-10.6,39.1-16.2,79.1-17,119
		c0,6.8,0.8,14.9,1.7,25.9c0,5.1,0.8,11.1,1.7,17.4c1.3,14,9.8,60.4,76.1,60.4c54,0,96.5-39.5,118.2-76.5c0.9-1.3,1.3-2.5,2.1-4.3
		l4.7-9.4l0.8-4.7c4.7-25.1,10.2-51,17.4-78.7c18.3-74,40.4-147.1,66.8-218.5c58.3-162,116.5-290,145.9-352
		c11.5-23.4,35.3-38.3,61.2-38.3h68.9c8.5,0,16.6,4.3,21.3,11.5c5.1,6.8,6,16.2,3,23.8c-22.1,55.7-46.8,124.1-71.9,197.3
		c-24.7,73.1-48.5,148.8-70.6,234.3c-15.3,53.1-25.9,107.1-32.3,162c0,2.1,0,4.7,0,6.8c0,18.3-0.8,29.8-1.3,36.1c0,3.4,0,5.5,0,6.8
		c0,96.1,60.8,103.7,79.5,103.7c67.2,0,106.7-57.8,117.4-75.3c0.9-1.7,2.1-3.4,2.6-5.5l3-5.5v-6c3.4-37.4,21.7-89.7,54.4-155.2
		c34-69.3,82.9-130.1,143.7-178.1c58.7-47.2,132.2-71.8,207.5-69.7c37-2.1,74,6.4,106.7,24.7c10.2,6.8,22.5,10.6,34.9,10.6
		c23.8,0,45.5-13.2,56.6-34c0.4-0.8,1.7-1.7,2.5-1.7h139.9c1.3,0,2.5,0.4,3,1.7c0.4,1.3,0.4,2.6,0,3.8l-3,7.2
		c-35.7,85-65.5,172.6-89.7,261.9c-10.2,39.1-15.7,79.1-16.2,119c0,6.8,0,14.9,1.7,25.9c0,5.1,0.8,11.1,1.7,17.4
		c0.8,14,9.8,60.4,76.1,60.4c36.6-0.8,71-17,94.8-45.1c7.2-8.9,17.9-14,29.3-14.9c2.1-0.4,4.3-0.4,6.4,0c3.4,0.9,4.3,1.7,4.3,1.7
		c9.4,12.3-20.8,86.3-79.1,146.7C3488.5,1640.8,3404.3,1681.2,3329.9,1681.2z M3215.1,1054.5c-44.2,0-85.5,22.5-122,66.7
		c-33.6,40.8-61.2,85.5-82.5,133.5c-20.4,43.4-32.3,90.1-35.3,138.2v6.4c0,78.2,55.7,84.2,72.7,84.2c62.5,0,122-76.5,145-116.9
		l24.7-44.2c23-42.9,41.7-88.4,55.7-134.8c5.1-18.7,8.5-37.8,9.4-57.4v-2.1c2.1-20-4.7-40-17.9-55.3
		C3251.2,1060.4,3233.4,1053.6,3215.1,1054.5z"/>
	<path d="M3838.4,1043.7V926.6h49.8c12.5,0,21.6,1.1,27.3,3.2c5.7,2.1,10.2,5.8,13.6,11.2c3.4,5.4,5.1,11.5,5.1,18.5
		c0,8.8-2.6,16-7.7,21.8c-5.2,5.7-12.9,9.3-23.2,10.8c5.1,3,9.3,6.3,12.7,9.8c3.3,3.6,7.8,9.9,13.5,19l14.3,22.9h-28.3l-17.1-25.5
		c-6.1-9.1-10.2-14.8-12.5-17.2c-2.2-2.4-4.6-4-7.1-4.9c-2.5-0.9-6.5-1.3-11.9-1.3h-4.8v48.9H3838.4z M3862.1,976.1h17.5
		c11.3,0,18.4-0.5,21.3-1.4c2.8-1,5-2.6,6.6-5c1.6-2.3,2.4-5.3,2.4-8.8c0-3.9-1.1-7.1-3.2-9.5c-2.1-2.4-5.1-4-8.9-4.6
		c-1.9-0.3-7.7-0.4-17.3-0.4h-18.5V976.1z M3883.5,1116.2c-72.4,0-131.4-58.9-131.4-131.4c0-72.4,58.9-131.4,131.4-131.4
		s131.4,58.9,131.4,131.4C4014.9,1057.3,3955.9,1116.2,3883.5,1116.2z M3883.5,873.7c-61.3,0-111.2,49.9-111.2,111.2
		s49.9,111.2,111.2,111.2c61.3,0,111.2-49.9,111.2-111.2S3944.8,873.7,3883.5,873.7z"/>
</g>
</svg>
