<?xml version="1.0" encoding="utf-8"?>
<!-- Generator: Adobe Illustrator 26.0.1, SVG Export Plug-In . SVG Version: 6.00 Build 0)  -->
<svg version="1.1" id="Layer_1" xmlns="http://www.w3.org/2000/svg" xmlns:xlink="http://www.w3.org/1999/xlink" x="0px" y="0px"
	 viewBox="0 0 4000 2430.9" style="enable-background:new 0 0 4000 2430.9;" xml:space="preserve">
<style type="text/css">
	.st0{fill:#B55F27;}
	.st1{fill:#F7901E;}
	.st2{fill:#FEC20E;}
	.st3{fill:#FFFFFF;}
</style>
<g>
	<path d="M3740.1,2026.3c-48.9-115.8-112.3-211.2-245-235c55.3-24.3,108.5-61.3,154.8-109.4c8.1-5.1,158.7-173.3,98.7-278.5
		c-10.6-23-21.7-45.6-34-67.3c-26.4-49.8-89.8-71.1-142.9-56.2c20.8-71.1,45.5-141.4,74-209.9c14.9-32.8,14.9-70.2-0.9-102.2
		c-27.6-62.6-57.9-130.7-137.4-130.7h-139.9c-25.1,0-49.8,8.1-70.2,23.4c-136.1-51.1-297.3-19.2-409.6,71.5
		c-34.5,27.7-65.9,58.8-93.6,92.4c25.1-75.8,55.3-158.4,78.7-218.9c14.9-38.3,11.9-80.9-7.2-116.7c-13.2-26-25.1-52.8-40.4-77.9
		c-26-37.9-68.9-60.9-115.3-60.9h-68.9c-69.8,0.4-133.1,40-163.8,103c-24.2,51.1-67.6,145.6-114.4,265.7
		c-17-48.1-60.8-83.9-112.7-83.5h-106.8c-70.6-0.4-132.7,43.4-160.8,107.7c-37.9,75.8-90.2,178-140.8,253.3
		c16.6-43.9,35.3-86.9,55.3-129c25.5-48.5,4.3-99.6-21.3-142.6c-17.4-49.4-60.8-90.3-115.7-89c-37.4,1.3-127.2-5.1-162.1,8.1
		c47.6-70.3,68.9-152.9,29.8-231.6c-14-27.3-26.8-55.4-41.7-82.6c-54-92.4-174.8-106.4-264.6-60.9c-31.1,14.5-63.4,35.8-98.3,42.2
		c-35.3,2.1-48.9,3-98.3-11.1l28.1-85.6c51.9-46.8,39.1-107.7,6.4-160.9c-25.1-72-98.7-114.1-166.7-63.9
		c-4.3-8.1-7.2-16.6-12.3-23.8c-20.8-59.6-102.1-85.6-153.6-46.4c-9.4-18.3-17.4-37.5-28.1-54.9c-14.5-37-51.5-63.9-94.4-64.3
		c-71-0.9-121.2,75.8-94.9,140.9l-2.6,8.1c-51.9-85.2-182.9-50.2-188,48.5c-74.4-73.7-197.4,2.6-168.4,102.2c3,17,12.8,30.7,20,46
		c8.9,20.4,19.6,40.4,33.2,58.3l30.6,91.5C221,571,137.2,687.2,122.3,848.2c-9.4,100.5,5.5,178,45.9,251.2
		c45.1,101.3,120,200.1,239.1,224.8C168.6,1500-6.6,1727.8,0.2,1993.9c0.4,29.4-0.9,74.9,16.6,103.5c9.8,19.6,19.6,39.2,29.4,58.3
		c20.4,44.3,65.1,74.9,116.6,74.9c34.9-1.7,68.9-12.8,98.3-32.4c24.7-14.5,57.9-26,83.8-41.3c223.7-140.5,427.1,92.8,651.7,95.4
		l-0.4-0.8c105.5-0.9,204.2-44.7,268.4-102.6c7.7,32.8,24.2,62.6,39.1,92.4c17.9,37.9,37.9,74.9,68.5,103.9
		c102.9,107.3,291.8,112.4,397.3,6.8c72.3,68.6,186.7,99.6,280.3,60c27.2,15.8,79.5,9.4,109.7,10.6c31.1,0.4,62.1-13.2,82.1-37.5
		c94,62.6,230.1,61.3,321.2-6.8c18.7,27.7,51,45.1,86.8,43.9c40-1.3,102.5,8.1,135.7-19.6c32.7,27.7,95.7,17.9,135.3,19.6
		c38.3,0.4,77.4-20.4,94.4-55.4c17.4,35.8,55.7,57.5,95.3,55.4l73.6,0.8c43,1.7,84.2-27.2,97-68.1
		C3514.2,2558.5,3856.2,2315,3740.1,2026.3z M769.3,1059.3c-13.2-31.5-31.1-63.9-62.1-80.5c3-11.5,9.4-23.8,22.1-29.8
		c6.8-0.8,13.6-1.3,20.4-1.3c43.4,2.6,86.4,10.6,127.6,24.3C842,1001.4,806.3,1030.8,769.3,1059.3z M1735.3,1864.1
		c-14.5-20-36.2-32.4-57.4-44.3c67.6-11.1,134-40.9,198.2-90.3c14,20.4,33.6,40.5,59.6,57.1
		C1862,1785.3,1788.9,1813.8,1735.3,1864.1C1735.7,1864.5,1735.3,1864.5,1735.3,1864.1z M2288.7,1796.4
		c-27.2,8.5-52.7,21.3-74.9,39.6c-7.2-10.2-16.6-19.6-26.8-26.8c46.4-13.2,90.6-34.5,130.2-63.4c10.6,13.6,23.8,26.8,40.8,38.7
		C2334.6,1786.2,2311.2,1789.6,2288.7,1796.4z M2514.1,1827c-1.3-0.9-3-2.1-4.3-3c1.3,0,2.6,0,3.8-0.4
		C2513.7,1824.9,2513.7,1826.2,2514.1,1827z M1445.2,1803.2c1.3-7.7,2.6-14.9,3.8-21.7c7.7,5.1,15.3,9.4,23.8,13.6
		C1463.5,1796.8,1454.1,1799.8,1445.2,1803.2z M1343.1,1273.5c-15.7,50.2-32.8,117.5-36.2,178.8c-44.2-10.2-91.5,5.1-124.6,34.9
		c-16.2,14-30.2,31.1-40.4,49.8c-28.1,48.5-72.3,97.5-109.3,97.5c-13.2-0.8-26.4-5.1-37-13.2c-42.1-27.3-76.6-49.4-109.3-66.4
		c176.1-151.2,359.9-296.8,524.1-462.8C1384.8,1150.9,1362.2,1211.8,1343.1,1273.5z M3296.4,1825.3c-31.9,18.3-60,43-82.5,72
		c-28.5-49-76.6-86.4-131.9-100.9c25.5-11.1,49.8-25.5,71.9-43c30.2,33.2,77,61.3,147.6,69.4
		C3300.2,1823.2,3298.5,1824,3296.4,1825.3z"/>
	<path class="st0" d="M1367.8,1695.5c0,19.6-31.9,430.5-358.2,461.1c-203.3,19.2-422.8-252.9-712.9-83c-27.2,15.8-57.4,26-84.2,42.2
		c-16.6,11.9-36.2,18.7-56.6,20.9c-19.1,0-35.7-11.5-42.5-28.5c-1.7-2.6-3-5.5-4.3-8.9c-3.4-4.3-6.4-9.4-8.1-14.9
		c-0.4-1.3-0.9-2.6-1.7-3.8c-0.9-1.7-1.7-3.4-2.6-5.1c-1.7-2.6-3-5.5-4.3-8.9c-6-7.2-9.8-16.2-10.2-26.4
		c-1.7-16.2-1.7-31.9-1.7-46.8c0-196.3,90.6-364.9,272.2-520.7c89.3-76.2,188-152.4,294.8-226.9c134-90.3,261.2-190.3,380.3-299.3
		c4.3-3.8,7.7-8.9,9.8-14v-0.4c-46.8-17-93.6-34.1-139.5-48.5c-50.2-16.6-102.5-26.4-155.7-29.4c-12.3,0-24.7,0.4-36.6,2.1
		c-1.3,0-3,0.4-4.3,0.8c-58.7,19.2-85.5,75.4-85.5,129.9c-0.8,10.6,0,21.7,2.1,31.9c1.3,1.3,2.1,3,3.4,4.3c2.1,2.6,4.3,5.1,6.4,7.7
		c8.9,8.1,20,14.5,31.9,17.9c1.7,0.4,3,1.3,4.7,1.7c4.3,2.1,8.1,5.1,11.1,8.9c6.4,5.1,10.6,12.3,11.9,20.4c0.9,0.9,1.3,2.1,2.1,3.4
		c3.4,3.8,6,8.9,7.2,14.1c3.4,4.3,6,9.8,6.8,15.3c6.4,9.4,8.1,21.7,3,32.8c-23.4,45.1-74.9,72.8-129.7,86.9
		c-35.7,8.1-169.7,29.4-249.7-43.9c-29.4-26.8-51-54.1-66.8-83c-1.7-2.6-3-5.5-4.3-8.1c-7.2-11.9-13.2-23.8-18.7-36.2
		c-35.3-60-43.4-125.6-36.6-203.1c14.5-158,108.5-266.5,234-327.4l-0.4-0.9c-0.4,0-0.9,0.4-0.9,0.4l-2.1-6.8c-0.4,0-0.9,0.4-0.9,0.4
		l-2.1-6.8c-0.4,0-0.9,0.4-0.9,0.4l-2.1-6.8h-0.4l-2.6-7.2c-0.4,0.4-0.9,0.4-1.7,0.4l-2.1-6.8c-0.4,0-0.9,0.4-0.9,0.4l-49.8-151.6
		c-8.5-2.1-14.9-8.9-16.2-17.9c0,0,0,0,0-0.4c-3-2.6-4.7-6-6-9.8c-1.3-1.7-2.1-3.8-3-6c-1.3-1.7-2.6-3.8-3-6c-2.1-3-3.4-6.4-4.3-9.8
		c0,0,0,0,0-0.4c-3-2.6-4.7-6-6-9.8c-2.6-3.4-4.3-7.7-4.3-12.3c-0.4-11.9,8.9-22.1,20.8-22.6c9.4,0.4,17,6.8,19.6,15.8
		c0.9,1.3,1.7,2.6,2.6,3.8c3,3,5.1,7.2,5.5,11.9c0.4,1.3,0.9,2.1,1.3,3.4c1.7,2.1,2.6,4.3,3.4,6.8c1.3,2.1,2.6,3.8,3.4,6.4
		c0.9,1.3,1.7,2.6,2.6,3.8c3,3,5.1,7.2,5.5,11.9c1.7,3,2.6,6.4,2.6,10.2c0,4.7-1.3,8.9-3.4,12.3c20.4,20.9,45.1,39.6,69.3,39.6
		c5.1,0,9.8-1.3,14-3.8c3-2.1,5.5-4.3,8.1-6.8c5.5-6,10.2-13.2,13.6-20.4c6.4-13.6,11.1-27.7,14.5-42.2c3.8-14.9,6.8-30.2,8.9-43.9
		c0.4-2.6,0.8-5.1,1.3-7.7c0-0.4,0-0.9,0-0.9c-1.3-1.7-2.6-3.8-3-6c-1.7-2.1-3-4.7-3.4-7.7c-1.7-2.6-3-5.5-3.4-8.9
		c-0.4-0.4-0.4-0.9-0.9-1.3c-2.6-2.6-4.3-5.5-5.1-8.9c-2.6-3.8-4.3-8.1-4.3-12.8c-0.4-11.9,8.9-21.7,20.8-22.1
		c9.4,0.4,17,6.8,19.6,15.8c0.9,1.3,1.7,2.6,2.6,3.8c3,3,5.1,7.2,5.5,11.9c0.4,1.3,0.8,2.1,1.3,3.4c1.3,2.1,2.6,4.3,3.4,6.4
		c1.7,2.1,2.6,4.3,3.4,6.8c0.9,1.3,1.7,2.6,2.6,3.8c3,3,5.1,7.2,5.5,11.9c1.7,3,2.6,6.4,2.6,10.2c0,8.9-5.1,17-13.6,20.4
		c3.4,8.1,6.8,16.6,9.4,25.1c11.5,15.3,25.1,24.3,40,17c10.2-5.5,19.1-13.6,25.9-23.4l4.7-6.8c5.5-8.5,10.6-17.5,15.3-26.4
		c3.8-7.7,8.5-17.9,11.1-23.8c2.6-6,5.1-12.3,7.7-18.7c2.6-6.4,4.7-12.8,6.8-19.2c1.3-3.4,2.1-6.4,3.4-9.4l6-18.3
		c4.7-14.9,8.5-28.5,11.5-40c-1.3-2.1-2.1-4.7-2.6-7.2c0-0.4-0.4-0.4-0.4-0.9c-2.6-2.6-4.7-5.5-5.5-8.9c-2.6-3.8-4.3-8.5-4.3-13.2
		c-0.4-11.9,8.9-21.7,20.8-22.1h0.4c9.4,0.4,17,6.8,19.6,15.3c1.3,1.7,2.1,3.4,3,5.5c2.1,2.6,3.4,5.5,4.3,8.5
		c0.8,1.7,2.1,3.4,2.6,5.1c1.3,2.1,2.6,4.3,3.4,6.4c1.7,2.1,2.6,4.3,3.4,6.8c1.3,1.7,2.1,3.4,3,5.5c2.1,2.6,3.4,5.5,4.3,8.5
		c2.1,3.4,3.8,7.7,3.4,11.9c0.4,10.2-6.4,19.2-16.2,21.7c2.1,8.5,5.1,18.7,8.5,30.7c6,20.4,14,44.7,23,68.6c1.3,3,2.6,6,3.8,8.9
		c10.2,16.2,21.3,28.5,33.2,34.1c25.5,12.3,47.6-23.4,62.1-55.8c3-10.6,6.8-20.9,11.1-30.7c-0.4-1.3-0.8-2.1-1.3-3.4
		c-0.8-1.3-1.3-2.6-1.7-3.8c-2.1-2.1-3.4-4.7-4.3-7.7c-2.6-3.8-4.3-8.1-4.3-13.2c-0.4-11.9,8.9-21.7,20.8-22.6
		c9.4,0.4,17,6.8,19.6,15.8c1.3,1.7,2.1,3,3,4.7c2.1,2.6,3.4,6,4.3,9.4c0.8,1.7,1.7,3.4,2.6,5.1c1.3,2.1,2.6,4.3,3.4,6.4
		c1.7,2.1,2.6,4.3,3.4,6.8c1.3,1.7,2.1,3,3,4.7c2.1,2.6,3.4,6,4.3,9.4c2.1,3.4,3.8,7.2,3.4,11.9v0.4c0.4,11.9-8.9,21.7-20.8,21.7
		h-2.1c1.7,18.7,6.4,54.9,15.7,86.9c6,6,13.2,9.8,20.8,9.8c14.5-0.9,28.5-6,40-14.5c19.1-13.6,36.2-30.2,50.2-48.5l6-7.7
		c0.8-1.3,1.7-2.6,2.6-3.4c-0.4-1.3-0.8-2.1-0.8-3.4c-0.9-1.3-1.3-2.1-1.7-3.4c-2.1-2.1-3.4-4.7-4.3-7.7c-3-3.8-4.3-8.5-4.3-13.6
		c-0.4-11.9,8.9-22.1,20.8-22.6c9.8,0.4,17,6.8,19.6,15.8c1.3,1.7,2.1,3,3,5.1c2.1,2.6,3.4,6,4.3,9.4c0.8,1.7,1.7,3.4,2.6,5.1
		c1.3,2.1,2.6,4.3,3.4,6.4c1.3,2.1,2.6,4.3,3.4,6.4c1.3,1.7,2.1,3,3,5.1c2.1,2.6,3.4,6,4.3,9.4c2.1,3.4,3.8,7.2,3.4,11.9
		c0.4,11.9-8.9,21.7-20.8,22.1L1013.9,545c121.7,54.9,171.4,50.7,214,47.7c45.5-3,93.2-34.1,126.3-49.4c74-33.6,126.3-16.2,154.8,20
		c8.9,9.8,15.7,20.9,20.8,32.8c4.3,6.8,8.1,13.6,11.1,21.3c2.6,4.3,4.7,8.9,6.4,13.6c17.4,33.6,18.7,76.6,1.7,110.3
		c-61.3,115.4-140.4,220.6-234.4,311.2c-111.9,106.9-228.4,210.8-353.5,312.9c-89.3,72.8-166.7,140.9-234.8,204.4
		c-8.1,7.7-15.7,15.3-23.8,23c94-2.1,137.8,23,249.7,95.8c134,87.3,235.7-67.7,260.8-111.1c6-10.6,13.6-20.4,23-28.5
		c15.7-16.6,39.1-23,61.3-16.2c18.7,7.2,26.4,16.6,34.9,34.9c1.7,3.4,3.4,6.8,5.5,11.1c1.3,2.6,3,5.5,4.3,8.5
		c1.3,2.1,2.1,4.3,3.4,6.4c1.3,2.1,2.1,4.3,3.4,6.4c1.7,3.4,3.4,6.8,5.5,11.1c3,5.1,6,11.5,8.9,18.7
		C1368.2,1651.6,1369.9,1673.3,1367.8,1695.5z M3336.4,1731.2c-80.8,0-128-29.4-151.9-77.1c-1.3-2.6-2.6-4.7-4.7-6.8
		c-11.5-13.2-31.1-14.5-44.2-3c-55.7,51.5-121.2,86.4-192.7,86.4c-71.5,0-123.4-26-154-77.9c-4.3-7.2-8.1-14.9-11.9-22.6
		c-3.4-6.4-6.8-12.8-9.4-19.2c-2.6-4.3-4.7-8.5-6.8-13.2c-0.8-1.7-1.7-3.4-3-5.1c-5.5,6-11.5,12.8-17.9,19.2
		c-64.7,66.4-155.7,118.4-248,118.4c-60,0-102.1-19.6-126.3-58.3c-5.1-8.1-9.8-16.6-13.6-25.1c-3-5.5-6-11.5-8.5-17.5
		c-0.4-0.9-0.8-1.7-1.3-2.6c-2.1-4.3-4.3-8.5-6.4-12.8c-1.3-2.6-3-5.1-4.3-7.7l-4.7,5.1c-64.7,66.4-154,118.4-248,118.4
		c-83.8,0-133.1-31.1-156.1-81.7c-3.4-5.5-6-11.5-8.5-17.9c0,0,0-0.4-0.4-0.4c-2.6-4.7-5.1-9.4-7.2-14.5c-0.4-0.4-0.4-0.9-0.9-1.3
		c-12.3-10.6-31.1-11.1-43.4,0.4c-75.7,70.3-160.4,115.4-250.5,115.4c-74.4,0-126.3-19.6-155.7-56.6c-9.8-12.3-17.4-25.5-24.2-39.6
		c-3.4-6.4-6.8-12.8-9.8-19.6c-2.1-4.3-4.3-8.5-6.4-12.8c-6.8-12.3-12.3-25.5-16.6-38.7c-8.5-24.3-12.8-49.8-11.9-75.8
		c0-4.7-8.1-60,32.3-189.9c34.9-112.4,81.2-221,137.8-324.4c19.1-34.1,54.9-55.4,94-55.4h108c5.1,0,10.6,1.3,15.3,3.4
		c10.2,4.7,16.6,14,18.7,23.8v0.4c2.1,3,3.4,6,4.7,8.9c0.8,1.3,1.3,2.6,2.1,4.3c1.3,1.7,2.1,3.4,3,5.1c3.4,4.3,5.5,8.9,6.4,14.1v0.4
		c2.1,3,3.4,6,4.7,8.9c6,9.8,6.8,22.1,1.3,33.2c-40.8,85.6-74.9,173.7-102.1,264.4c-11.9,36.2-18.3,74.1-19.6,112
		c0,3.4,0.4,8.5,1.3,15.8c7.7,2.6,16.6,3.8,27.6,3.8c53.6,0,121.7-76.2,186.3-175.4c30.6-48.1,59.6-96.7,86.8-144.8l1.3-2.6
		c24.7-51.1,47.2-93.2,64.7-126.9c16.2-29.8,47.2-48.5,81.2-48.5h107.2c4.7,0,9.4,1.3,13.6,3c9.8,4.3,17,12.8,20,22.1
		c0.4,0.9,1.3,2.1,1.7,3c2.1,3,3.4,6,4.7,9.4c0.9,1.3,1.7,2.6,2.1,3.8c1.7,2.1,3,4.7,3.8,7.7c1.7,2.6,3,5.5,3.8,8.5
		c0.4,0.8,1.3,2.1,1.7,3c2.1,3,3.4,6,4.7,9.4c5.5,9.4,6.8,21.3,2.1,32.4c-36.2,86-66.4,174.6-90.6,264.4
		c-9.8,36.6-15.3,74.1-16.2,112c0,4.3,0.4,9.8,1.3,17c5.5,1.7,12.3,2.6,20,2.6c44.7,0,77-37.9,90.2-60.5c0.4-0.9,0.8-1.3,1.3-2.1
		l2.6-5.5c4.3-23.4,9.8-50.2,17.9-81.3c18.3-75.4,41.3-149.4,68.1-222.3c53.6-149.4,110.2-277.6,147.6-355.1
		c17-34.9,51.9-56.6,90.6-56.6h68.5c7.2,0,14.5,1.3,21.3,3.8c16.2,6.4,27.6,18.7,33.2,33.6c3,3.8,5.1,8.5,6.8,13.2
		c0.9,1.3,1.7,2.6,2.1,3.8c1.7,2.6,3,5.5,4.3,8.5c1.3,2.1,2.6,4.7,3.4,7.2c3,3.8,5.1,8.5,6.8,13.2c7.7,14.5,9.4,31.9,3,48.1
		c-21.3,53.6-43.8,118.4-71.5,196.3c-27.6,77.9-50.2,155.8-69.8,232c-15.3,51.1-25.9,103.9-32.3,156.7c0,1.7,0,3,0,4.7
		c0,26.4-1.7,39.6-1.7,43c0,5.1,0.4,10.2,0.9,14.9c6,3,12.8,4.7,20.4,4.7c44.2,0,76.1-36.6,89.8-59.6l1.7-3.4
		c3.4-41.7,22.5-97.1,57.9-167.3c36.2-73.7,88.5-138.4,152.3-189.9c64.7-52.4,145.5-80,228.4-77.9c56.6,0,96.1,11.1,124.6,29.8
		c0.4,0.4,0.9,0.4,1.3,0.8c15.7,8.9,35.3,3,44.2-12.3c6.4-11.5,17.9-18.3,31.1-18.3h140c4.7,0,9.8,0.9,14,3
		c10.2,4.3,17,12.8,20,22.1c0.4,1.3,1.3,2.1,1.7,3.4c1.7,2.6,3,5.1,4.3,7.7c1.3,2.1,2.6,4.3,3.4,6.4c1.3,2.1,2.6,4.3,3.4,6.4
		c1.7,2.6,3,5.5,3.8,8.5c0.4,1.3,1.3,2.1,1.7,3.4c1.7,2.6,3,5.1,4.3,7.7c6.4,9.8,7.7,22.1,3,33.6c-36.2,86-66.4,174.6-90.6,264.4
		c-9.8,36.6-15.3,74.1-16.2,112c0,4.3,0.4,9.8,1.3,17c5.5,1.7,12.3,2.6,20,2.6c27.7-0.8,53.6-13.6,71-34.5
		c16.6-20,42.5-29,68.1-23.8c14.9,3.8,23,12.3,26.8,23.8c0.9,1.7,1.7,3,2.6,4.7c1.3,2.1,3,4.7,3.8,7.2c1.3,2.1,2.6,4.3,3.4,6.4
		c1.3,2.1,2.6,4.3,3.4,6.4c1.3,2.1,2.6,4.7,3.4,7.7c0.8,1.7,1.7,3,2.6,4.7c1.3,2.1,3,4.7,3.8,7.2c24.7,39.6-31.5,133.3-82.9,186.5
		C3521,1678.9,3430.4,1730.8,3336.4,1731.2z M3015.7,1414c4.3,1.3,8.9,2.1,14.5,2.1c43.8,0,95.7-63.4,116.6-100.5l24.2-43.9
		c22.1-40.9,40-83.9,53.6-128.2c3.8-13.2,6-26.4,7.2-40c-2.6-0.4-5.5-0.8-8.9-0.8c-34,0-66.4,17.9-97.4,55.4
		c-31.5,38.3-57.8,80.9-77.8,126.5c-18.7,39.6-29.8,82.6-32.3,126.5v3H3015.7z M1700,2266.9c-0.4-0.8-0.4-1.7-0.8-2.6
		c-0.8-2.1-1.7-4.3-2.6-6l-0.4-0.9c0,0,0,0,0-0.4c-0.8-1.7-1.7-3.8-2.6-5.5l-0.9-1.3c-0.8-1.7-1.3-3.4-2.6-5.1l-0.4-0.9
		c-0.8-1.7-1.7-3.8-2.6-5.5l-3.4-5.1c0-0.4,0-1.3-0.4-1.7c-0.9-2.1-1.7-4.3-2.6-6l-0.4-0.8c0,0,0,0,0-0.4c-0.9-1.7-1.7-3.8-2.6-5.5
		l-0.8-1.3c-0.8-1.7-1.3-3.4-2.6-5.1l-35.3-53.6c-2.1-3.8-5.1-7.2-8.9-9.4c-3-1.7-6.4-2.1-9.8-2.1c-2.1,0-4.3,0.4-6,0.9
		c-3,0.8-6,2.1-8.1,4.3c-9.4,6.4-19.6,11.9-30.2,16.2c-10.6,4.3-22.1,6.4-33.6,6.4c-12.3,0.4-25.1-2.1-36.6-7.2
		c-10.2-4.7-19.1-11.5-26.8-19.2c-1.3-6.8-1.7-13.6-1.7-20.4c0-13.2,2.1-26.4,6.8-38.7c4.3-11.9,10.2-23,18.3-32.4
		c8.1-9.4,17.9-16.6,28.5-22.1c11.5-5.5,23.8-8.1,36.6-8.1c11.5,0,23,1.7,34,6c10.6,3.8,20.4,8.9,29.8,14.9c3,2.1,6,3.8,8.9,5.1
		c2.1,0.9,4.7,1.3,6.8,1.3c9.4-0.9,17.9-6.8,21.7-15.3l28.1-47.7c2.6-3.4,3.8-7.7,3.8-11.5c0-4.3-1.3-8.1-3.4-11.9
		c-0.4-3-1.7-6-3.4-8.5c-0.8-2.6-1.7-5.1-3.4-7.7l-0.4-0.4c-0.8-1.7-1.3-3.8-2.6-5.5c-0.9-2.6-1.7-4.7-3.4-6.8
		c-0.8-0.9-1.7-1.7-2.6-2.6c0-0.4-0.4-0.9-0.4-0.9c-0.4-3-1.7-6-3.4-8.5c-0.8-2.6-1.7-5.1-3.4-7.7l-0.4-0.4
		c-0.8-1.7-1.7-3.8-2.6-5.5c-3-3.8-6.8-7.2-11.1-9.4l0.9,0.8c-16.6-11.9-35.3-20.9-54.9-27.3c-20.8-6.4-42.1-9.4-63.8-9.4
		c-18.7,0-37,2.6-54.9,7.2c-17,4.7-33.2,11.5-48.5,20.4c-15.3,8.9-29.3,20-41.7,32.4c-12.8,12.3-23.4,26.4-32.3,41.7
		c-8.9,15.8-16.2,32.4-20.8,49.8c-5.1,18.3-7.7,37-7.7,55.8c0,18.7,2.6,37.5,7.7,55.8c3.4,13.2,8.9,25.5,14.9,37.9
		c0.4,0.8,0.8,1.7,0.8,2.1c3.8,10.2,8.5,20.4,14,29.8c0.8,1.7,2.1,3,3,4.3c3.8,9.8,8.1,19.2,13.2,28.1c8.9,15.3,20,29.4,32.3,41.7
		c12.3,12.3,26.4,23.4,41.7,32.4c15.3,8.9,31.5,16.2,48.5,20.9c17.9,4.7,36.6,7.2,54.9,7.2c22.1,0,43.8-3.8,64.7-11.1
		c20-7.2,39.1-17,56.6-29c3.8-2.1,6.8-5.1,10.2-8.1c3-3,4.7-7.2,4.7-11.9c0-1.7-0.4-3.4-1.3-5.1
		C1701.3,2269.4,1700.8,2268.1,1700,2266.9z M2176,1937.7c1.3,3.4,1.7,6.8,1.7,10.2v356.8c0,3.4-0.4,6.8-1.7,10.2
		c-1.3,3.4-3.4,6-6.4,7.7c-2.1,2.1-5.1,3.8-8.1,4.3c-2.6,0.4-5.5,0.9-8.1,0.9h-62.1c-3.8,0-7.2-0.4-10.6-1.7
		c-2.6-0.9-4.7-2.6-6.8-4.7c-1.7-2.1-2.6-4.3-3.4-6.4c0,0-0.4,0-0.4-0.4c-1.7-2.6-3.4-5.1-4.3-7.7l-2.1-6c0,0,0-0.4-0.4-0.4
		l-0.9-2.1c-0.8-1.3-1.7-3-2.6-4.7v-0.4c-0.4-0.4-0.4-1.3-0.8-1.7c-5.1,4.7-10.6,9.4-16.6,13.6c-7.7,5.5-15.7,10.6-23.8,14.9
		c-8.9,4.3-18.3,8.1-28.1,10.6c-10.2,2.6-20.4,3.8-31.1,3.8c-18.7,0-37-2.6-55.3-7.2c-17.4-4.7-34-11.5-49.3-20.9
		c-15.3-8.9-29.3-20-41.7-32.4c-12.8-12.3-23.4-26.4-32.3-41.7c-2.6-4.7-4.7-9.4-6.8-14.1c-0.8-1.7-1.7-3.8-2.6-5.5
		c-2.1-3.4-3.8-7.2-5.5-11.1c-0.4-0.4-0.9-1.3-1.3-1.7c-2.6-4.7-4.7-9.4-6.8-14c-0.8-1.7-1.7-3.8-2.6-5.5
		c-8.9-15.8-16.2-32.4-20.8-49.8c-5.1-18.3-7.2-37-7.2-55.8c0-27.7,5.5-55.4,16.2-81.3c10.2-24.7,25.1-46.8,43.8-66
		c18.7-18.7,40.4-33.6,64.7-43.9c25.5-11.1,53.2-16.6,81.2-16.2c12.3,0,24.7,1.3,36.6,4.7c10.6,2.6,21.3,6.8,31.1,11.9
		c9.4,5.1,17.9,11.1,25.5,18.3c7.2,6.8,14,14.5,20,23l9.4-28.5c2.1-5.5,3.8-9.4,5.1-12.8c0.9-2.6,2.6-5.1,4.3-7.2
		c1.7-1.7,3.8-2.6,6-3c3.4-0.8,6.4-0.8,9.8-0.8h46.8c3,0,5.5,0.4,8.1,0.8c3,0.9,6,2.1,8.1,4.3c3,2.1,5.1,4.7,6.8,7.7
		c0.4,0.9,0.4,2.1,0.8,3c0.9,0.9,1.7,2.1,2.1,3c0.4,1.3,0.8,3,1.3,4.3c0.4,0.9,0.8,1.7,1.3,2.6c0,0.4,0.4,1.3,0.4,1.7
		c1.3,1.7,2.6,3,3.4,5.1c0.4,0.9,0.4,1.7,0.9,3c0.8,0.8,1.3,1.7,1.7,2.6c0.4,0.9,0.4,1.7,0.8,2.6c1.3,1.3,2.6,3,3.4,4.7
		c0.4,0.8,0.4,2.1,0.8,3c0.9,0.9,1.7,2.1,2.1,3c0.4,1.3,0.8,3,1.3,4.3c0.4,0.8,0.8,1.7,1.3,2.6c0,0.4,0.4,1.3,0.4,1.7
		C2173.8,1934.3,2175.1,1936,2176,1937.7z M1868.4,2149.8c7.2,7.2,15.7,13.6,25.5,17.9c11.5,5.1,24.2,8.1,37,7.7
		c13.6,0,26.8-2.6,39.6-7.7c11.9-4.7,23-11.9,32.3-20.9c8.9-9.4,16.2-20.4,20.8-32.4c5.5-12.3,8.1-25.5,8.1-38.7
		c0-5.5-0.4-11.5-1.3-17c-0.4-0.9-0.8-1.3-1.7-2.1c-8.9-9.4-19.6-16.6-31.5-22.1c-12.3-5.5-25.9-8.1-39.6-8.1
		c-12.8,0-25.5,2.6-37.4,8.1c-11.1,5.1-20.8,12.8-28.9,22.1c-8.1,9.4-14.5,20.4-18.7,32.4c-4.3,12.3-6.4,25.5-6.4,38.7
		C1866.3,2134.9,1867.1,2142.5,1868.4,2149.8z M3181.5,2020.3c-0.4-1.7-0.8-3.8-1.7-5.5c-4.7-14.9-11.5-29-19.6-42.2
		c-4.7-12.8-11.1-24.7-18.7-36.2c-3.4-6-6.8-11.5-10.6-16.6c-13.2-15.8-29.8-29-48.5-37.9c-20.4-9.8-42.5-14.5-64.7-14
		c-15.3,0-31.1,1.7-45.9,5.5c-12.8,3-24.7,7.7-36.2,14.1c-9.8,5.1-18.3,11.5-26.4,19.2c-4.3,3.8-7.7,8.1-10.6,12.8
		c-0.4-0.4-0.4-0.8-0.9-1.3l-0.8-2.6c-0.4-1.7-1.7-2.6-2.6-4.3l-0.9-2.6c-0.4-1.7-1.7-2.6-2.6-4.3l-0.8-2.6
		c-0.4-1.7-1.7-2.6-2.6-4.3l-0.8-2.6c-0.4-1.7-1.7-2.6-2.6-4.3l-0.9-2.6c-0.8-3-2.6-5.5-4.7-8.1c-1.7-2.1-4.3-4.3-6.8-5.5
		c-3-1.7-6.4-2.1-9.8-2.1h-48.5c-3,0-6,0.4-8.9,0.8c-3,0.9-6,2.1-8.5,4.3l2.1-0.8c-3.4,1.7-6,4.7-7.7,7.7c-1.7,3.4-2.6,7.2-2.6,11.1
		v353.8c-0.4,5.1,1.7,10.2,4.3,14.5c0.8,3.8,2.6,7.2,5.1,10.2c0.4,0.4,0.9,0.4,0.9,0.9c0,0.4,0.4,0.4,0.4,0.8c0.9,3,1.7,5.5,3.4,7.7
		c0.8,2.1,2.1,4.3,3.4,6.4c0.8,2.1,1.7,4.3,3,6.4c0.8,3.8,2.6,7.2,5.1,10.2c0.4,0.4,0.9,0.4,0.9,0.9s0.4,0.4,0.4,0.8
		c0.9,3.8,2.6,7.7,5.1,10.6c5.1,4.7,12.3,7.2,19.6,6.8h71.5c3,0,5.5-0.4,8.1-0.9c2.6-0.8,5.5-2.1,7.7-3.4c3-2.1,5.1-5.1,6-8.1
		c1.3-3.4,2.1-7.2,2.1-10.6V2097c0.4-9.4,3.4-18.3,7.7-26.4c4.3-7.7,9.8-14.9,16.2-21.3c6.4-6,14-10.6,21.7-14
		c7.2-3.4,15.3-5.1,23-5.1c8.9,0,17.9,1.7,25.9,5.5c7.2,3,13.6,7.2,19.1,11.9v203.9c-0.8,6.4,0.9,12.8,5.1,17.9
		c0.8,0.4,1.7,0.4,2.6,0.9c0.4,3,1.3,6,3,8.5c0.9,3,2.1,6,3.8,8.5c0.8,2.1,1.7,4.7,3.4,6.4c0.9,2.6,2.1,5.5,3.8,7.7
		c0.8,0.4,1.7,0.4,2.6,0.8c0.4,3,1.3,6,3,8.5c0.9,3.4,2.1,6.8,4.7,9.8c5.5,3.8,11.9,5.1,18.7,4.7h72.7c6,0.4,11.9-1.7,16.2-6
		c3.8-5.1,5.5-11.5,5.1-18.3v-207.4c0-23.4-3.4-46.4-10.2-68.6C3183.3,2025.4,3182,2022.9,3181.5,2020.3z M3675.4,2128.1
		c0,18.7-2.6,37.5-7.7,55.8c-5.1,17-11.9,33.2-21.3,48.5c-8.9,15.3-20,29.4-32.3,41.7c-12.3,12.8-26.8,23.4-42.1,32.4
		c-15.3,8.9-31.5,16.2-48.5,20.9c-17.9,5.1-36.6,7.2-55.3,7.2c-18.7,0-37.4-2.6-55.7-7.2c-17.4-4.7-34-11.5-49.8-20.9
		c-15.3-8.9-29.3-20-42.1-32.4c-12.3-12.3-23.4-26.4-32.3-41.7c-0.8-1.7-1.7-3.4-2.6-5.1c-0.4-0.4-0.4-0.9-0.8-1.3
		c-0.4-1.3-0.9-2.1-1.7-3.4c-0.4-0.9-1.3-1.7-1.7-3c-1.3-2.1-2.1-4.3-3-6.4c-4.7-8.1-8.5-16.2-12.3-24.7c-0.4-0.4-0.4-0.8-0.8-1.3
		c-1.3-2.1-2.1-4.3-3-6.4c-8.9-15.8-16.2-32.4-20.8-49.8c-5.1-18.3-7.7-37-7.7-55.8c0-18.7,2.6-37.9,7.7-55.8
		c4.7-17.5,11.5-34.5,20.8-49.8c8.9-15.3,20-29.4,32.3-41.7c12.3-12.8,26.8-23.4,42.1-32.4c15.7-8.9,32.3-15.8,49.8-20.4
		c18.3-5.1,37-7.2,55.7-7.2c27.6,0,55.3,5.5,81.2,16.2c24.7,10.2,46.8,25.1,65.9,43.9c15.7,15.8,28.5,33.6,38.3,53.2
		c1.3,2.1,2.1,4.3,3,6.4c1.3,2.1,2.1,4.7,3.4,6.8c1.3,2.1,2.1,4.3,3,6.4c1.3,2.1,2.1,4.3,3.4,6.4c1.3,2.1,2.1,4.3,3.4,6.4
		c1.3,2.1,2.1,4.3,3,6.4c1.3,2.1,2.1,4.7,3.4,6.8c3.4,6,6.4,12.3,9.4,18.7C3670.3,2071.4,3675.8,2099.5,3675.4,2128.1z
		 M3378.5,2150.2c7.2,7.2,15.7,13.2,25.1,17.5c11.9,5.5,25.1,8.1,38.3,7.7c12.8,0,25.5-2.6,37-7.7c10.6-5.1,20.4-11.9,28.1-20.9
		c8.1-9.4,14-20.4,17.9-32.4c4.3-12.3,6.4-25.5,6-38.7c0-8.1-0.8-16.2-2.6-23.8c-6.8-6.8-14.5-12.8-23-17c-11.5-5.5-24.2-8.1-37-8.1
		c-13.2-0.4-26,2.6-38.3,8.1c-11.1,5.1-20.8,12.8-28.5,22.1c-8.1,9.4-14.5,20.4-18.3,32.4c-4.3,12.3-6.4,25.5-6.4,38.7
		C3376.4,2134.9,3377.2,2142.5,3378.5,2150.2z M2548.6,2171.1c3,11.1,4.7,22.1,4.3,33.6c0.4,19.6-3.8,38.7-12.3,55.8
		c-8.1,16.2-20,30.2-34,41.3c-15.3,11.5-33.2,20.4-51.9,25.5c-20.8,6-43,9.4-64.7,8.9c-13.2,0-26.8-1.3-40-3.4
		c-13.6-2.1-26.8-6-39.1-11.1c-12.8-5.1-24.7-11.9-36.2-20c-11.5-8.1-21.7-18.3-30.2-29.4c-2.1-3-3.8-6-5.1-9.4
		c-0.4-1.3-0.9-2.6-1.3-3.8c0,0,0,0-0.4-0.4c-2.1-3-3.8-6-5.1-9.4c-0.4-0.9-0.4-2.1-0.8-3l-0.4-0.4c-2.1-3-3.8-6-5.1-9.4
		c0,0,0,0,0-0.4c-1.3-1.7-2.6-3.8-3-6c-0.4-1.3-0.9-2.6-1.3-3.8c0,0,0,0-0.4-0.4c-2.1-3-3.8-6-5.1-9.4c-0.8-1.7-1.3-3.4-1.3-5.1
		c0-0.4-0.4-0.8-0.8-1.3c-1.3-3-1.7-6.4-1.7-9.4c0-3,0.8-6,2.1-8.9c1.3-2.6,3-5.1,5.5-6.8l40.8-40.9c3.4-3.8,8.5-5.5,13.6-4.7
		c5.5,2.6,11.1,6.4,14.9,11.1c5.5,5.5,11.9,10.2,18.3,14.5c6,3.8,12.3,6.8,19.1,9.4c5.1,2.1,10.6,3.8,16.2,5.1
		c3,0.8,6.4,1.3,9.4,1.7h15.3c6-0.4,12.3-1.3,17.9-3c2.6-0.4,4.7-1.7,6.8-2.6l-12.8-3.8c-21.7-5.5-43-13.6-62.5-24.3
		c-14.9-8.5-28.1-19.6-38.7-32.4c-7.2-8.5-12.8-18.3-17-28.5c-2.1-3.8-4.3-8.1-6-12.3c-1.3-2.1-2.1-3.8-3.4-6
		c-2.6-4.7-5.1-9.4-6.8-14c-4.3-7.2-7.2-14.5-9.8-22.6c0-0.4,0-0.4,0-0.9c-0.8-1.7-1.3-3.8-2.1-5.5c-3.8-14.1-6-28.5-5.5-43
		c-0.4-16.6,3.4-32.8,10.2-47.7c6.8-14.5,17-26.8,29.8-36.6c13.6-10.6,29.4-18.7,46.4-23.8c19.1-6,39.6-8.5,59.6-8.5
		c12.8,0,25.1,0.9,37.4,3.4c11.1,2.1,22.1,6,32.3,10.6c11.1,5.1,21.3,11.1,30.6,18.3c10.6,8.1,20.8,17,29.8,26.8
		c3,3,4.7,6.8,5.5,11.1c0.4,0.4,0.4,1.3,0.8,1.7c3,3,4.7,6.8,5.5,11.1c0.4,1.3,0.8,2.1,1.3,3.4c1.3,1.3,2.1,3,3,4.3l0.4,0.4
		c3,3,4.7,6.8,5.5,11.1c0.4,0.4,0.4,1.3,0.8,1.7c3,3,4.7,6.8,5.5,11.1c1.3,2.6,2.1,4.7,2.6,7.7c-0.4,4.7-3,9.4-7.2,11.9
		c-8.1,6.8-16.2,13.6-23.4,20c-7.2,6.4-15.3,13.6-23.4,21.7c-2.1,2.1-4.7,3.4-7.7,3.8c-1.7,0.4-3,0-4.7,0c7.2,4.7,13.6,9.4,20,14.9
		c12.3,10.2,22.5,23,29.8,37.5c0.4,1.3,0.8,3,1.7,4.7c1.7,3,3.4,5.5,4.7,8.5c0.8,1.7,1.3,3.8,2.1,5.5c3,4.3,6,8.9,8.1,14
		c0.4,1.3,0.8,3,1.7,4.7c1.7,3,3.4,5.5,4.7,8.5C2544.3,2153.2,2546.9,2162.1,2548.6,2171.1z M2455,2039.1c-0.4-0.4-0.9-0.9-1.3-1.3
		c-6.8-7.7-15.3-13.2-25.1-16.2c-8.5-3-17-4.7-26-4.7c-0.4,0-1.3,0-1.7,0c15.7,5.1,31.5,11.5,46.8,18.3
		C2450.3,2036.1,2452.5,2037.8,2455,2039.1z M2732.4,1767.8c-0.8-1.7-1.7-3.4-2.6-4.7c-0.8-3-2.1-5.5-3.8-7.7
		c-0.9-2.1-1.7-3.8-3-5.5c-0.9-2.1-1.7-4.7-3-6.4c-0.9-2.6-2.1-5.1-3.8-7.7c-0.8-1.7-1.7-3.4-2.6-4.7c-0.8-3.8-3-7.7-6-10.6
		c-5.1-3.8-11.5-6-17.9-5.5h-73.2c-6.4-0.4-12.8,1.3-17.9,5.5c-4.3,5.1-6.4,11.9-5.5,18.7v61.7c0,7.7,1.7,13.2,4.7,17.5
		c0.9,2.6,2.1,4.7,3.4,6.8c0.8,2.1,1.7,3.8,3,5.5c0.8,2.6,1.7,4.7,3,6.8c0.8,3.8,2.6,7.2,4.7,9.8c0.4,1.3,1.3,2.6,1.7,3.4
		c0.8,2.6,2.1,4.7,3.4,6.8c0.9,2.1,1.7,3.8,3,5.5c1.3,5.1,4.3,8.9,7.7,11.5h-11.5c-6.8-0.4-13.2,2.1-17.9,7.2
		c-3.8,5.1-6,11.1-5.5,17.5V2252c0,6.8,1.7,11.9,4.7,16.2c0.9,2.6,2.1,4.7,3.4,6.8c0.9,2.6,1.7,4.7,3,6.4c0.9,2.6,1.7,4.3,3.4,6.4
		c0.8,2.6,1.7,4.7,3.4,6.4c0.8,2.6,1.7,4.7,3.4,6.4c0.9,2.6,2.1,4.7,3.4,6.8c0.8,2.6,1.7,4.7,3,6.4c2.6,9.8,10.2,14.5,22.1,14.5
		h72.3c6.8,0.4,13.6-1.7,19.1-6c4.7-4.7,7.2-11.5,6.8-18.3v-352.5c0-3.4-0.8-7.2-2.6-10.2c-0.4-0.9-1.3-1.7-2.1-2.6
		c-0.4-1.3-0.9-2.6-1.7-3.8c0-0.4-0.4-0.4-0.9-0.9c-0.4-2.1-1.3-3.8-2.1-5.5c-0.4-0.4-0.9-0.9-1.3-1.3c-0.4-1.7-1.3-3.4-2.1-5.1
		c-0.4-0.4-0.8-0.9-1.3-1.3c-0.4-2.1-1.3-3.8-2.1-5.5c-0.4-0.4-0.8-0.8-1.3-1.7c-0.4-1.7-0.8-3-1.7-4.3c-0.4-0.9-1.3-1.7-2.1-2.6
		c-0.4-1.3-0.9-2.6-1.7-3.8c0-0.4-0.4-0.4-0.8-0.8c-0.4-2.1-1.3-3.8-2.1-5.5c-0.4-0.4-0.8-0.8-1.3-1.3c-0.4-1.7-1.3-3.4-2.1-5.1
		c-1.7-3-3.8-5.5-6.4-7.7c-1.3-0.8-2.6-1.7-3.8-2.1h14c3.4,0,7.2-0.8,10.2-2.6c3-1.7,5.5-4.3,7.7-6.8c2.1-2.6,3.8-5.5,4.7-8.5
		c1.3-2.6,1.7-5.5,1.7-8.1v-61.7c0.4-5.5-0.8-11.1-3.8-15.3C2735.3,1772.5,2734.1,1770,2732.4,1767.8z"/>
	<path class="st1" d="M1336.7,1578.4c-11.1-25.5-17.9-36.6-39.6-45.1c-21.7-6.8-45.5-0.4-61.3,16.2c-9.4,8.1-17,17.9-23,28.5
		c-25.1,43.4-126.8,198.4-260.8,111.1c-115.7-75.8-158.7-99.6-259.5-95.8c-13.2,4.7-28.1-2.6-32.3-15.8c-3.4-9.4-0.4-20,6.8-27.3
		c10.6-10.2,21.7-20.4,32.3-31.5c68.1-63.4,145.9-131.6,234.8-204.4c124.6-102.2,241.6-206.1,353.5-312.9
		c94-90.7,173.1-195.9,234.4-311.2c40-80.5-21.7-213.7-168-147.3c-33.2,15.3-81.2,46.4-126.3,49.4c-45.5,3-99.1,7.7-240.8-60
		c-14.9-7.2-29.8-13.6-44.7-19.2c-291.8-113.7-709.1-4.7-741,343.6c-10.2,112,11.5,199.3,99.5,279.3c80,73.2,214,51.9,249.7,43.9
		c54.4-14,106.3-42.1,129.7-86.9c7.7-16.2,0.8-35.3-15.3-43.4c-1.3-0.8-3-1.3-4.7-1.7c-17.4-4.7-32.8-15.3-43-30.2
		c-20-22.6-29.8-52.4-27.7-82.6c0-54.5,26.8-110.7,85.5-129.9c1.3-0.4,3-0.9,4.3-0.9c12.3-1.7,24.2-3,36.6-3
		c52.7,3,105.1,12.8,155.7,29.4c47.6,14.9,96.1,32.4,144.6,50.2c20,8.1,29.8,30.7,21.7,50.7c-2.1,5.5-5.5,10.2-9.8,14
		C909.2,1054.7,782,1154.7,648,1245c-106.8,74.5-205.9,150.7-294.8,226.9C171.6,1627.8,81,1796.4,81,1992.6c0,14.9,0,30.7,1.7,46.8
		c1.3,24.7,21.7,43.9,46.4,43.9c20.4-1.7,39.6-8.9,56.6-20.9c26.8-16.2,57-26,84.2-42.2c290.1-169.9,509.6,102.6,712.9,83
		c326.3-30.7,358.2-442,358.2-461.1C1343.1,1621.4,1341.8,1599.7,1336.7,1578.4z M3560.1,1560.5c61.7-63.4,129.7-184.8,59.6-202.7
		c-25.1-5.1-51.5,3.8-68.1,23.8c-17.9,21.3-43.8,33.6-71,34.5c-27.6,0-42.1-9.8-43.8-30.7c-1.7-21.3-3.4-32.4-3.4-40.4
		c0.9-37.9,6.4-75.4,16.2-112c24.2-90.3,54.4-178.4,90.6-264.4c7.7-18.3-0.8-39.6-19.1-47.3c-4.7-1.7-9.4-3-14-3H3367
		c-12.8,0-24.7,7.2-31.1,18.3c-8.9,15.8-28.5,21.3-44.2,12.3c-0.4,0-0.8-0.4-1.3-0.8c-28.5-19.2-68.1-29.8-124.6-29.8
		c-82.9-2.1-164.2,25.5-228.4,77.9c-64.2,51.5-116.1,116.2-152.3,189.9c-35.3,70.3-54,126-57.9,167.3l-1.7,3.4
		c-13.6,23-45.5,59.6-89.8,59.6c-30.6,0-46.8-24.3-46.8-71.5c0-3,1.3-16.2,1.7-43c0-1.7,0-3,0-4.7c6.4-53.2,17-105.6,32.3-156.7
		c19.6-76.2,42.1-154.1,69.8-232c27.6-77.9,50.2-142.6,71.5-196.3c11.5-30.2-3.4-63.9-33.2-75.4c-6.8-2.6-14-3.8-21.3-3.8h-68.9
		c-38.7,0-73.6,22.1-90.6,56.6c-37.4,77.9-94,206.1-147.6,355.1c-26.8,72.8-49.8,146.9-68.1,222.3c-7.7,30.7-13.6,57.5-17.9,81.3
		l-2.6,5.5c-0.4,0.8-0.8,1.7-1.3,2.1c-13.2,22.6-45.5,60.5-90.2,60.5c-27.6,0-42.1-9.8-43.8-30.7c-1.7-21.3-3.4-32.4-3.4-40.4
		c0.8-37.9,6.4-75.4,16.2-112c24.2-90.3,54.4-178.4,90.6-264.4c8.1-18.3-0.4-39.6-19.1-47.7c-4.3-1.7-8.9-3-13.6-3h-105.9
		c-34,0-65.1,18.7-81.2,48.5c-17.9,33.6-40,75.8-64.7,126.9l-1.3,2.6c-27.2,48.5-56.1,96.7-86.8,144.8
		c-64.7,98.8-132.7,175.4-186.3,175.4c-30.6,0-48.5-9.8-50.2-30.7c-1.7-21.3-3.4-34.1-3.4-40.4c1.3-37.9,7.7-75.8,19.6-112
		c27.2-90.7,61.3-179.3,102.1-264.4c8.5-17.5,1.3-38.3-16.2-46.8c-4.7-2.1-9.8-3.4-15.3-3.4h-108c-39.1,0-74.9,21.3-94,55.4
		c-56.6,103.5-102.5,212-137.8,324.4c-40.4,129.9-32.3,184.8-32.3,189.9c-1.7,48.5,13.6,96.2,43.8,134.5
		c29.3,37.5,81.2,56.6,155.7,56.6c90.6,0,175.3-45.1,250.5-115.4c13.2-11.9,33.6-11.1,45.9,2.1c3.4,3.4,5.5,7.7,7.2,12.3
		c18.7,62.2,68.9,100.9,163.3,100.9c94,0,183.3-51.9,248-118.4l10.2-11.1c4.7,25.1,14.5,49.4,28.9,71.1
		c24.2,38.7,66.4,58.3,126.3,58.3c92.3,0,183.3-51.9,248-118.4c7.7-7.7,14.9-16.2,21.3-23c6.4,22.6,15.3,43.9,27.2,63.9
		c30.6,51.9,82.5,77.9,154,77.9c71.5,0,137-35.3,192.7-86.4c13.2-11.5,32.8-10.2,44.2,3c1.7,2.1,3.4,4.3,4.7,6.8
		c23.8,47.7,71.5,77.1,151.9,77.1C3404.4,1678.9,3495,1626.9,3560.1,1560.5z M3232.6,1095.1c-0.8,16.6-3.4,32.8-8.1,48.5
		c-13.6,44.3-31.5,87.3-53.6,128.2l-24.2,43.9c-21.3,37.5-72.7,100.5-116.6,100.5c-27.6,0-40.4-17.9-40.4-51.9v-4.7
		c2.6-43.9,13.6-86.9,32.3-126.5c20-45.6,46.4-88.1,77.8-126.5c30.6-37.5,63.4-55.4,97.4-55.4
		C3236,1051.3,3232.6,1081.9,3232.6,1095.1z M346.9,294.6c1.7,0,3,0,4.7,0l66.4,201.8c25.9-11.1,51.9-20.9,79.1-29.4
		c28.9-8.9,58.3-16.2,88.5-21.3c37.4-6.8,75.3-10.2,113.6-10.2c50.2,0,100,5.1,148.5,16.2c47.6,11.1,94.4,27.3,138.7,47.7
		l67.6-204.8c11.9-0.4,21.3-10.2,20.8-22.1c0.4-11.9-8.9-22.1-20.8-22.6c-11.9,0.4-21.3,10.6-20.8,22.6
		c-0.4,10.2,6.4,19.2,16.2,21.7c-2.1,3-4.7,6.4-7.2,10.2l-6,7.7c-14.5,18.7-31.5,34.9-50.2,48.5c-11.5,8.5-25.5,13.6-40,14.5
		c-44.2,0-58.7-111.1-62.5-148.6h2.1c11.9,0,21.3-9.8,21.3-21.7c0.4-11.9-8.9-22.1-20.8-22.6c-11.9,0.4-21.3,10.6-20.8,22.6
		c0,9.4,5.5,17.9,14.5,21.3c-6,11.9-10.6,24.7-14,37.5c-14.5,32.4-36.6,68.1-62.1,55.8C765,301,734.4,213.7,717.4,156.3
		c-3.4-11.9-6.4-22.1-8.5-30.7c9.8-2.6,16.6-11.9,16.2-21.7c0.4-11.9-8.9-21.7-20.4-22.1h-0.4c-11.9,0.4-21.3,10.2-20.8,22.1
		c-0.4,9.4,5.5,18.3,14.9,21.3c-3.4,12.3-8.1,29.8-14,48.5l-6,18.3c-0.8,3-2.1,6-3.4,9.4c-2.1,6.4-4.7,12.8-6.8,19.2
		c-2.6,6.4-5.1,12.8-7.7,18.7c-2.6,6-7.2,16.2-11.1,23.8c-4.7,8.9-9.8,17.9-15.3,26.4l-4.7,6.8c-6.8,9.8-15.7,17.9-26,23.4
		c-25.5,12.3-47.6-23-62.1-56.2c-3.4-12.8-8.1-25.5-14-37.5c8.5-3.4,14.5-11.5,14-20.9c0.4-11.9-8.9-22.1-20.8-22.6
		c-11.9,0.4-21.3,10.2-20.8,22.1c-0.4,11.9,8.9,21.7,20.4,22.1h0.4h2.1c0,5.1-1.3,11.5-2.1,19.2c0,4.3-1.3,8.5-1.7,12.8
		c-2.1,13.6-5.1,29-8.9,43.9c-3.4,14.5-8.1,28.5-14.5,42.2c-3.4,7.7-8.1,14.5-13.6,20.4c-2.6,2.6-5.1,4.7-8.1,6.8
		c-4.3,2.6-8.9,3.8-14,3.8c-26.8,0-54.9-23-76.1-46.4c-10.6-11.5-20-23.8-28.9-36.6c8.1-3.4,13.6-11.5,13.2-20.4
		c0.4-11.9-8.9-22.1-20.8-22.6c-11.9,0.4-21.3,10.6-20.8,22.6C325.6,284.4,335,294.2,346.9,294.6z"/>
	<path class="st2" d="M346.9,294.6c1.7,0,3,0,4.7,0l66.4,201.8c25.9-11.1,51.9-20.9,79.1-29.4c28.9-8.9,58.3-16.2,88.5-21.3
		c37.4-6.8,75.3-10.2,113.6-10.2c50.2,0,100,5.1,148.5,16.2c47.6,11.1,94.4,27.3,138.7,47.7l67.6-204.8
		c11.9-0.4,21.3-10.2,20.8-22.1c0.4-11.9-8.9-22.1-20.8-22.6c-11.9,0.4-21.3,10.6-20.8,22.6c-0.4,10.2,6.4,19.2,16.2,21.7
		c-2.1,3-4.7,6.4-7.2,10.2l-6,7.7c-14.5,18.7-31.5,34.9-50.2,48.5c-11.5,8.5-25.5,13.6-40,14.5c-44.2,0-58.7-111.1-62.5-148.6h2.1
		c11.9,0,21.3-9.8,21.3-21.7c0.4-11.9-8.9-22.1-20.8-22.6c-11.9,0.4-21.3,10.6-20.8,22.6c0,9.4,5.5,17.9,14.5,21.3
		c-6,11.9-10.6,24.7-14,37.5c-14.5,32.4-36.6,68.1-62.1,55.8C765,301,734.4,213.7,717.4,156.3c-3.4-11.9-6.4-22.1-8.5-30.7
		c9.8-2.6,16.6-11.9,16.2-21.7c0.4-11.9-8.9-21.7-20.4-22.1h-0.4c-11.9,0.4-21.3,10.2-20.8,22.1c-0.4,9.4,5.5,18.3,14.9,21.3
		c-3.4,12.3-8.1,29.8-14,48.5l-6,18.3c-0.8,3-2.1,6-3.4,9.4c-2.1,6.4-4.7,12.8-6.8,19.2c-2.6,6.4-5.1,12.8-7.7,18.7
		c-2.6,6-7.2,16.2-11.1,23.8c-4.7,8.9-9.8,17.9-15.3,26.4l-4.7,6.8c-6.8,9.8-15.7,17.9-26,23.4c-25.5,12.3-47.6-23-62.1-56.2
		c-3.4-12.8-8.1-25.5-14-37.5c8.5-3.4,14.5-11.5,14-20.9c0.4-11.9-8.9-22.1-20.8-22.6c-11.9,0.4-21.3,10.2-20.8,22.1
		c-0.4,11.9,8.9,21.7,20.4,22.1h0.4h2.1c0,5.1-1.3,11.5-2.1,19.2c0,4.3-1.3,8.5-1.7,12.8c-2.1,13.6-5.1,29-8.9,43.9
		c-3.4,14.5-8.1,28.5-14.5,42.2c-3.4,7.7-8.1,14.5-13.6,20.4c-2.6,2.6-5.1,4.7-8.1,6.8c-4.3,2.6-8.9,3.8-14,3.8
		c-26.8,0-54.9-23-76.1-46.4c-10.6-11.5-20-23.8-28.9-36.6c8.1-3.4,13.6-11.5,13.2-20.4c0.4-11.9-8.9-22.1-20.8-22.6
		c-11.9,0.4-21.3,10.6-20.8,22.6C325.6,284.4,335,294.2,346.9,294.6z M1674,2212.4l-35.3-53.6c-2.1-3.8-5.1-7.2-8.9-9.4
		c-3-1.7-6.4-2.1-9.8-2.1c-2.1,0-4.3,0.4-6,0.9c-3,0.9-6,2.1-8.1,4.3c-9.4,6.4-19.6,11.9-30.2,16.2c-10.6,4.3-22.1,6.4-33.6,6.4
		c-12.3,0.4-25.1-2.1-36.6-7.2c-11.1-5.1-20.8-11.9-28.5-20.9c-8.1-9.4-14.5-20.4-18.3-32.4c-4.7-12.3-6.8-25.5-6.8-38.7
		c0-13.2,2.1-26.4,6.8-38.7c4.3-11.9,10.2-23,18.3-32.4c8.1-9.4,17.9-16.6,28.5-22.1c11.5-5.5,23.8-8.1,36.6-8.1c11.5,0,23,1.7,34,6
		c10.6,3.8,20.4,8.9,29.8,14.9c3,2.1,6,3.8,8.9,5.1c2.1,0.8,4.7,1.3,6.8,1.3c9.4-0.8,17.9-6.8,21.7-15.3l28.1-47.7
		c2.6-3.4,3.8-7.7,3.8-11.5c0-5.1-1.3-9.8-4.3-13.6c-3-3.8-6.8-7.2-11.1-9.4l0.8,0.9c-16.6-11.9-35.3-20.9-54.9-27.3
		c-20.8-6.4-42.1-9.4-63.8-9.4c-18.7,0-37,2.6-54.9,7.2c-17,4.7-33.2,11.5-48.5,20.4c-15.3,8.9-29.3,20-41.7,32.4
		c-12.8,12.3-23.4,26.4-32.3,41.7c-8.9,15.8-16.2,32.4-20.8,49.8c-5.1,18.3-7.7,37-7.7,55.8c0,18.7,2.6,37.5,7.7,55.8
		c4.7,17.5,11.9,34.1,20.8,49.8c8.9,15.3,20,29.4,32.3,41.7c12.3,12.3,26.4,23.4,41.7,32.4c15.3,8.9,31.5,16.2,48.5,20.9
		c17.9,5.1,36.6,7.2,54.9,7.2c22.1,0,43.8-3.8,64.7-11.1c20-7.2,39.1-17,56.6-29c3.8-2.1,6.8-5.1,10.2-8.1c3-3,4.7-7.2,4.7-11.9
		c0-1.7-0.4-3.4-1.3-5.1S1674.9,2214.5,1674,2212.4z M2143.2,1877.7c-2.1-2.1-5.1-3.8-8.1-4.3c-2.6-0.4-5.5-0.8-8.1-0.8h-46.8
		c-3.4,0-6.8,0-9.8,0.8c-2.1,0.4-4.3,1.7-6,3c-2.1,2.1-3.4,4.7-4.3,7.2c-1.3,3.4-3,7.7-5.1,12.8l-9.4,28.5c-6-8.1-12.3-15.8-20-23
		c-7.7-7.2-16.2-13.2-25.5-18.3c-9.8-5.1-20-9.4-31.1-11.9c-11.9-3-24.2-4.7-36.6-4.7c-27.6-0.4-55.3,5.1-81.2,16.2
		c-24.2,10.2-46.4,25.1-64.7,43.9c-18.7,18.7-33.6,41.3-43.8,66c-10.6,25.5-16.2,53.2-16.2,81.3c0,18.7,2.6,37.5,7.2,55.8
		c4.7,17.5,11.9,34.1,20.8,49.8c8.9,15.3,20,29.4,32.3,41.7c12.3,12.8,26.4,23.4,41.7,32.4c15.3,8.9,31.9,16.2,49.3,20.9
		c17.9,5.1,36.6,7.2,55.3,7.2c10.6,0,20.8-1.3,31.1-3.8c9.8-2.6,19.1-6,28.1-10.6c8.5-4.3,16.6-8.9,23.8-14.9
		c6.8-5.1,13.2-10.2,19.6-16.2l4.3,14.5l3.4,9.8c0.8,3,2.6,5.5,4.3,7.7c1.7,2.1,4.3,3.8,6.8,4.7c3.4,1.3,7.2,1.7,10.6,1.7h62.1
		c3,0,5.5-0.4,8.1-0.8c3-0.9,6-2.1,8.1-4.3c3-1.7,5.1-4.7,6.4-7.7c1.3-3.4,1.7-6.8,1.7-10.2v-356.8c0-3.4-0.4-6.8-1.7-10.2
		C2148.7,1882.4,2146.2,1879.8,2143.2,1877.7z M2023.3,2114c-4.7,11.9-11.9,23-20.8,32.4c-9.4,8.9-20.4,16.2-32.3,20.9
		c-12.3,5.1-26,8.1-39.6,7.7c-12.8,0-25.5-2.6-37-7.7c-11.1-5.1-20.8-11.9-28.9-20.9c-8.5-9.4-14.9-20.4-18.7-32.4
		c-4.3-12.3-6.4-25.5-6.4-38.7c0-13.2,2.1-26,6.4-38.7c4.3-11.9,10.2-23,18.7-32.4c8.1-9.4,17.9-16.6,28.9-22.1
		c11.9-5.5,24.7-8.1,37.4-8.1c13.6,0,26.8,2.6,39.6,8.1c12.3,5.1,23,12.8,32.3,22.1c8.9,9.4,16.2,20.4,20.8,32.4
		c5.1,12.3,7.7,25.5,7.7,38.7C2031.3,2088.9,2028.8,2102.1,2023.3,2114z M2489,2061.6c-12.3-11.1-26.4-19.6-41.3-26.4
		c-17-7.7-34-14.5-51.9-20c-5.1-1.3-10.6-2.6-16.2-3.8c-5.5-1.3-11.1-2.6-16.2-4.7c-5.1-1.7-9.4-4.3-13.6-7.7c-3.8-3.4-6-7.7-6-12.8
		c-0.8-6.8,2.6-13.2,8.5-16.2c7.7-3.8,16.2-6,24.7-5.5c8.9,0,17.9,1.7,26.4,4.3c9.8,3,18.7,8.5,25.1,16.2c1.7,2.1,3.4,3.8,5.5,5.5
		c2.1,1.3,4.3,2.6,6.8,3.4c2.6,0.4,5.1,0.4,7.2,0c3-0.4,5.5-2.1,7.7-3.8c8.1-8.1,16.2-15.3,23.4-21.7c7.2-6.4,15.3-13.2,23.4-20
		c3.8-2.6,6.8-7.2,7.2-11.9c-0.4-4.3-2.6-8.5-5.5-11.9c-9.4-9.8-19.1-18.7-29.8-26.8c-9.4-7.2-20-13.2-30.6-18.3
		c-10.2-4.7-21.3-8.5-32.3-10.6c-12.3-2.1-25.1-3.4-37.4-3.4c-20-0.4-40.4,2.6-59.5,8.5c-16.6,5.1-32.3,12.8-46.4,23.8
		c-12.8,9.8-22.5,22.6-29.8,36.6c-7.2,14.9-10.6,31.1-10.2,47.7c0,14.5,1.7,29,5.5,43c3.8,14,10.6,26.8,20,37.9
		c11.1,13.2,24.2,23.8,38.7,32.4c19.6,10.6,40.8,18.7,62.5,24.3l21.7,6.8c5.5,1.7,11.1,3.8,16.2,6.4c4.3,2.1,7.7,5.1,10.2,8.9
		c2.6,4.3,3.8,9.4,3.4,14c0.4,6-1.7,11.5-6,15.3c-4.3,3.8-9.4,6.4-14.5,7.7c-6,1.7-11.9,2.6-17.9,3h-15.3c-3.4,0-6.4-0.9-9.4-1.7
		c-5.5-1.3-11.1-3-16.2-5.1c-6.8-2.6-13.2-6-19.1-9.4c-6.8-3.8-12.8-8.9-18.3-14.5c-4.3-4.7-9.4-8.5-14.9-11.1
		c-5.1-0.9-10.2,0.9-13.6,4.7l-40.8,40.9c-2.6,1.7-4.3,4.3-5.5,6.8c-1.3,2.6-1.7,5.5-2.1,8.9c0,3.4,0.4,6.4,1.7,9.4
		c1.3,3.4,3,6.4,5.1,9.4c8.5,11.5,18.7,21.3,30.2,29.4c11.1,8.1,23.4,14.9,36.2,20c12.8,5.1,25.9,8.9,39.1,11.1
		c13.2,2.6,26.4,3.4,40,3.4c22.1,0.4,43.8-2.6,64.7-8.9c18.7-5.1,36.2-14,51.9-25.5c14.5-11.1,25.9-25.1,34-41.3
		c8.5-17.5,12.8-36.6,12.3-55.8c0.4-18.3-3-36.2-9.4-53.2C2511.6,2084.6,2501.4,2071.8,2489,2061.6z M2689.8,1714.2h-73.2
		c-6.4-0.4-12.8,1.3-17.9,5.5c-4.3,5.1-6.4,11.9-5.5,18.7v61.7c0,17.5,7.7,26.4,23.4,26.4h73.2c3.4,0,7.2-0.8,10.2-2.6
		c3-1.7,5.5-4.3,7.7-6.8c2.1-2.6,3.8-5.5,4.7-8.5c1.3-2.6,1.7-5.5,1.7-8.1v-61.7c0.8-6.8-1.7-14-6.8-18.7
		C2702.6,1715.9,2696.2,1713.8,2689.8,1714.2z M2705.1,1880.7c-2.6-2.1-5.1-3.8-8.1-5.1c-2.6-0.8-5.5-1.7-8.1-1.7h-72.3
		c-6.8-0.4-13.2,2.1-17.9,7.2c-3.8,5.1-6,11.1-5.5,17.5v352.5c0,16.2,7.7,24.3,23.4,24.3h72.3c6.8,0.4,13.6-1.7,19.1-6
		c4.7-4.7,7.2-11.5,6.8-18.3v-352.5c0-3.4-0.8-7.2-2.6-10.2C2709.8,1885.8,2707.7,1883.2,2705.1,1880.7z M3130.5,1919.8
		c-13.2-15.8-29.8-29-48.5-37.9c-20.4-9.8-42.5-14.5-64.7-14c-15.3,0-31.1,1.7-45.9,5.5c-12.8,3-24.7,7.7-36.2,14.1
		c-9.8,5.1-18.3,11.5-26.4,19.2c-6.4,6-11.5,12.8-15.3,20l-6.8-27.7l-3.4-8.9c-0.8-3-2.6-5.5-4.7-8.1c-1.7-2.1-4.3-4.3-6.8-5.5
		c-3-1.7-6.4-2.1-9.8-2.1h-48.5c-3,0-6,0.4-8.9,0.9c-3,0.8-6,2.1-8.5,4.3l2.1-0.8c-3.4,1.7-6,4.7-7.7,7.7c-1.7,3.4-2.6,7.2-2.6,11.1
		v353.8c-0.4,6.4,1.7,12.8,6,17.9c5.1,4.7,12.3,7.2,19.6,6.8h71.5c3,0,5.5-0.4,8.1-0.9c2.6-0.8,5.5-2.1,7.7-3.4c3-2.1,5.1-5.1,6-8.1
		c1.3-3.4,2.1-7.2,2.1-10.6v-205.7c0.4-9.4,3.4-18.3,7.7-26.4c4.3-7.7,9.8-14.9,16.2-21.3c6.4-6,14-10.6,21.7-14
		c7.2-3.4,15.3-5.1,23-5.1c8.9,0,17.9,1.7,25.9,5.5c8.5,3.4,16.2,8.5,23,14.9c6.8,6,12.3,13.2,16.2,21.3c4.3,8.1,6,17,6,26v206.1
		c-0.8,6.4,0.9,12.8,5.1,17.9c5.5,3.8,11.9,5.1,18.7,4.7h72.7c6,0.4,11.9-1.7,16.2-6c3.8-5.1,5.5-11.5,5.1-18.3V2045
		c0-23.4-3.4-46.4-10.2-68.6C3152.2,1955.6,3143.3,1936.5,3130.5,1919.8z M3633.3,1993.5c-10.2-24.7-25.5-46.8-44.2-66
		c-18.7-18.7-41.3-33.6-65.9-43.9c-25.5-11.1-53.2-16.6-81.2-16.2c-18.7,0-37.4,2.6-55.7,7.2c-17.4,4.7-34,11.5-49.8,20.4
		c-15.3,8.9-29.3,20-42.1,32.4c-12.3,12.3-23.4,26.4-32.3,41.7c-8.9,15.8-16.2,32.4-20.8,49.8c-5.1,18.3-7.7,37-7.7,55.8
		c0,18.7,2.6,37.5,7.7,55.8c4.7,17.5,11.9,34.1,20.8,49.8c8.9,15.3,20,29.4,32.3,41.7c12.3,12.8,26.8,23.4,42.1,32.4
		c15.7,8.9,32.3,16.2,49.8,20.9c18.3,5.1,37,7.2,55.7,7.2c18.7,0,37-2.6,55.3-7.2c17-4.7,33.6-11.9,48.5-20.9
		c15.3-8.9,29.3-20,42.1-32.4c12.3-12.3,23.4-26.4,32.3-41.7c8.9-15.8,16.2-32.4,20.8-49.8c5.1-18.3,7.7-37,7.7-55.8
		C3649,2047.6,3643.9,2019.5,3633.3,1993.5z M3524.4,2114c-3.8,11.9-9.8,23-17.9,32.4c-8.1,8.9-17.4,15.8-28.1,20.9
		c-11.5,5.5-24.2,8.1-37,7.7c-13.2,0-26-2.6-38.3-7.7c-11.1-4.7-20.8-11.9-28.5-20.9c-8.1-9.4-14.5-20.4-18.3-32.4
		c-4.3-12.3-6.4-25.5-6.4-38.7c0-13.2,2.1-26,6.4-38.7c4.3-11.9,10.2-23,18.3-32.4c8.1-9.4,17.9-17,28.5-22.1
		c11.9-5.5,25.1-8.1,38.3-8.1c12.8-0.4,25.5,2.6,37,8.1c10.6,5.5,20.4,12.8,28.1,22.1c8.1,9.8,14,20.4,17.9,32.4
		c4.3,12.3,6.4,25.5,6,38.7C3530.8,2088.5,3528.7,2101.7,3524.4,2114z"/>
	<path class="st3" d="M963.7,2073.5c-63.4,0-132.3-29.8-205.9-61.3c-85.9-37-183.3-78.8-289.7-78.8c-75.3,0.4-149.3,21.3-213.5,60.5
		c-12.3,6.8-25.1,13.2-37.9,18.7c-16.2,6.8-31.5,14.9-46.8,23.4c-11.5,8.5-25.1,14.1-39.6,16.2c-7.7,0-14-6-14.5-13.6
		c-1.3-18.7-1.7-32.4-1.7-45.1c0-183.1,85.5-345.3,260.8-496c88.9-76.2,187.2-152,291.8-225.2c135.3-91.1,263.7-192.4,384.1-302.3
		c18.7-16.6,26.8-42.2,22.1-66.8c-4.7-24.3-21.7-44.7-45.1-53.2c-48.5-17.9-97.4-35.3-145.9-50.7c-53.6-17.9-109.3-28.1-165.5-30.7
		c-13.6,0-27.7,1.3-41.3,3.4c-3,0.4-6.4,1.3-9.4,2.1c-65.5,20.9-108,83-108.5,158.8c-2.1,37.9,10.2,74.9,34.5,103.9
		c14.5,20.4,35.7,34.9,60,41.3c-22.1,41.7-77.8,61.3-108.9,69.4c-25.5,5.5-51.9,8.1-78.3,8.1c-42.5,0-101.2-7.7-141.6-44.7
		c-73.6-66.8-99.1-140.1-88.9-252.5c22.5-246.5,253.5-356.8,472.2-356.8c76.6-0.4,153.1,13.6,224.6,40.5
		c14.5,5.5,28.5,11.5,42.1,18.3c120,57.5,182.1,64.7,222.5,64.7c12.3,0,23.4-0.8,32.3-1.3h1.7c40-5.5,78.7-18.7,113.6-39.6
		c8.9-4.7,17-8.9,24.7-12.3c18.7-9.4,39.6-14.5,60.4-14.9c24.7-0.9,47.6,11.5,60.8,32.4c15.7,26,17.4,58.3,4.3,85.6
		c-59.5,112-136.1,213.7-226.7,301.9c-114.9,110.3-229.7,212-351.4,311.7c-84.7,69.4-164.2,138.8-236.5,206.1
		c-11.5,10.6-23,21.3-33.6,32.4c-17.4,16.2-22.5,41.7-13.6,63.4c8.5,22.1,29.8,36.6,53.6,36.6c4.7,0,8.9-0.4,13.2-1.3h15.3
		c77.8,0,117.4,23.4,220.8,90.7c28.9,20,63.4,31.1,98.7,31.5c107.6,0,181.2-107.7,207.6-153.7c4.3-7.7,9.8-14,16.2-20
		c6-6,14-9.8,22.5-11.1c2.1,0,3.8,0.4,6,0.9c9.4,3.8,11.9,4.7,21.7,27.7c3.4,17.5,4.7,34.9,3.8,52.8c0,3.8-25.5,400.2-328.8,428.8
		c-6,0.4-11.9,0.4-17.9,0L963.7,2073.5z M3312.1,1646.5c-62.5,0-102.9-19.2-122.9-59.2c-10.6-22.1-33.2-36.2-57.9-36.2
		c-15.7,0-31.1,5.5-42.5,16.2c-56.6,52.4-112.3,77.9-170.6,77.9c-57.9,0-101.7-20.4-125.9-62.2c-10.6-17.5-18.7-36.6-24.2-56.2
		l-16.2-57.9l-39.1,45.6c-6,7.2-12.8,14.5-19.6,21.7c-66.4,68.1-150.6,108.6-224.6,108.6c-48.5,0-81.2-14-99.1-43
		c-11.9-18.3-20.4-38.7-24.7-60.5l-13.2-61.7l-46.4,50.7c-1.7,2.1-3.4,4.3-5.5,6.4c-66.4,68.1-150.6,108.6-224.6,108.6
		c-74.4,0-116.6-25.5-132.3-77.9c-8.5-27.3-33.6-46-62.1-46c-16.2,0-31.9,6.4-44.2,17.5c-75.7,70.7-152.7,106.4-228.4,106.4
		c-63.4,0-107.2-14.9-129.7-44.3c-25.5-32.8-38.3-73.2-36.6-114.5c0-0.8,0-2.1,0-4.3c-1.7-23,0-76.6,31.1-175.8
		c34.5-110.3,79.5-217.1,135.3-318.5c13.2-23.4,37.9-38.3,64.7-38.3h108c0.9,0,1.7,0.4,2.1,1.3c0.4,0.9,0.4,1.7,0,2.6
		c-41.7,87.3-76.6,177.6-104.2,269.9c-12.3,39.2-19.6,79.6-20.4,120.5c0,6,0,14.1,1.7,26l1.7,17c0.8,14,10.2,60.5,82.5,60.5
		c60,0,129.7-62.2,213.5-189.9c31.1-48.5,60.4-97.5,88-146l2.6-4.7c20-43,38.7-78.3,55.3-109.9l8.1-16.2
		c10.2-19.2,30.6-31.5,52.3-31.5h106.3c1.3,0,2.6,0.4,3.4,1.7c0.4,1.3,0.4,2.6,0,3.8l-3,7.2c-35.7,85.2-65.5,172.9-89.3,262.3
		c-10.6,39.2-16.2,79.2-17,119.2c0,6.8,0.8,14.9,1.7,26c0,5.1,0.8,11.1,1.7,17.5c1.3,14,9.8,60.5,76.1,60.5
		c54,0,96.6-39.6,118.3-76.6c0.9-1.3,1.3-2.6,2.1-4.3l4.7-9.4l0.8-4.7c4.7-25.1,10.2-51.1,17.4-78.8
		c18.3-74.1,40.4-147.3,66.8-218.9c58.3-162.2,116.6-290.4,145.9-352.5c11.5-23.4,35.3-38.3,61.3-38.3h68.5
		c8.5,0,16.6,4.3,21.3,11.5c5.1,6.8,6,16.2,3,23.8c-22.1,55.8-46.8,124.3-71.9,197.6c-24.7,73.2-48.5,149-70.6,234.6
		c-15.3,53.2-26,107.3-32.3,162.2c0,2.1,0,4.7,0,6.8c0,18.3-0.8,29.8-1.3,36.2c0,3.4,0,5.5,0,6.8c0,96.2,60.8,103.9,79.5,103.9
		c67.2,0,106.8-57.9,117.4-75.4c0.9-1.7,2.1-3.4,2.6-5.5l3-5.5v-6c3.4-37.5,21.7-89.8,54.5-155.4c34-69.4,82.9-130.3,143.8-178.4
		c58.7-47.3,132.3-72,207.6-69.8c37-2.1,74,6.4,106.8,24.7c10.2,6.8,22.5,10.6,34.9,10.6c23.8,0,45.5-13.2,56.6-34.1
		c0.4-0.8,1.7-1.7,2.6-1.7H3507c1.3,0,2.6,0.4,3,1.7c0.4,1.3,0.4,2.6,0,3.8l-3,7.2c-35.7,85.2-65.5,172.9-89.8,262.3
		c-10.2,39.2-15.7,79.2-16.2,119.2c0,6.8,0,14.9,1.7,26c0,5.1,0.8,11.1,1.7,17.5c0.8,14,9.8,60.5,76.1,60.5
		c36.6-0.8,71-17,94.9-45.1c7.2-8.9,17.9-14,29.3-14.9c2.1-0.4,4.3-0.4,6.4,0c3.4,0.8,4.3,1.7,4.3,1.7
		c9.4,12.3-20.8,86.4-79.1,146.9C3470.4,1606,3386.6,1646.5,3312.1,1646.5z M3196.9,1018.5c-44.2,0-85.5,22.6-122.1,66.8
		c-33.6,40.9-61.3,85.6-82.5,133.7c-20.4,43.4-32.3,90.3-35.3,138.4v6.4c0,78.3,55.7,84.3,72.7,84.3c62.5,0,122.1-76.6,145.1-117.1
		l24.7-44.3c23-43,41.7-88.6,55.7-135c5.1-18.7,8.5-37.9,9.4-57.5v-2.1c2.1-20-4.7-40-17.9-55.4
		C3233,1024.4,3215.2,1018,3196.9,1018.5z"/>
	<path class="st3" d="M3823.6,1010.4V893.3h49.8c12.5,0,21.6,1.1,27.3,3.2c5.7,2.1,10.2,5.8,13.6,11.2c3.4,5.4,5.1,11.5,5.1,18.5
		c0,8.8-2.6,16-7.7,21.8c-5.2,5.7-12.9,9.3-23.2,10.8c5.1,3,9.3,6.3,12.7,9.8c3.3,3.6,7.8,9.9,13.5,19l14.3,22.9h-28.3l-17.1-25.5
		c-6.1-9.1-10.2-14.8-12.5-17.2c-2.2-2.4-4.6-4-7.1-4.9c-2.5-0.9-6.5-1.3-11.9-1.3h-4.8v48.9H3823.6z M3847.2,942.8h17.5
		c11.3,0,18.4-0.5,21.3-1.4c2.8-1,5-2.6,6.6-5c1.6-2.3,2.4-5.3,2.4-8.8c0-3.9-1.1-7.1-3.2-9.5c-2.1-2.4-5.1-4-8.9-4.6
		c-1.9-0.3-7.7-0.4-17.3-0.4h-18.5V942.8z M3868.6,1083c-72.4,0-131.4-58.9-131.4-131.4c0-72.4,58.9-131.4,131.4-131.4
		S4000,879.2,4000,951.6C4000,1024,3941.1,1083,3868.6,1083z M3868.6,840.4c-61.3,0-111.2,49.9-111.2,111.2s49.9,111.2,111.2,111.2
		c61.3,0,111.2-49.9,111.2-111.2S3929.9,840.4,3868.6,840.4z"/>
</g>
</svg>
